<svg id="Capa_1" enable-background="new 0 0 510.618 510.618" height="512" viewBox="0 0 510.618 510.618" width="512" xmlns="http://www.w3.org/2000/svg"><g><path d="m506.593 75.071-360.33-3.174c-4.449-.039-8.035-3.657-8.035-8.106v-6.648c0-4.449 3.586-8.067 8.035-8.106l360.33-3.174z" fill="#eaa895"/><path d="m506.593 132.679-360.33-31.574c-4.449-.039-8.035-3.657-8.035-8.106v-6.648c0-4.449 3.586-8.067 8.035-8.106l360.33 25.227z" fill="#eaa895"/><path d="m222.602 36.766h-1.778c-6.546 0-11.852 5.306-11.852 11.852 0-6.546-5.306-11.852-11.852-11.852h-1.778c-6.546 0-11.852 5.306-11.852 11.852 0-6.546-5.306-11.852-11.852-11.852h-1.778c-6.546 0-11.852 5.306-11.852 11.852v170.488c0 6.546 5.306 11.852 11.852 11.852h1.778c6.546 0 11.852-5.306 11.852-11.852 0 6.546 5.306 11.852 11.852 11.852h1.778c6.546 0 11.852-5.306 11.852-11.852 0 6.546 5.306 11.852 11.852 11.852h1.778c6.546 0 11.852-5.306 11.852-11.852v-170.487c.001-6.547-5.306-11.853-11.852-11.853z" fill="#e9c278"/><path d="m453.81 283.84-63.692-84.212h-320.675l-63.691 84.212c-4.221 5.581-.24 13.583 6.757 13.583h76.488c10.963 54.52 22.488 109.02 31.77 163.52 1.147 6.734 6.982 11.661 13.812 11.704l190.185 1.204c6.796.043 12.664-4.759 13.949-11.433 10.543-54.739 20.652-109.928 31.128-164.995h77.211c6.998.001 10.979-8.002 6.758-13.583z" fill="#f9fbfc"/><g fill="#eaa895"><g><path d="m378.975 216.777c0 1.686 1.367 3.053 3.052 3.053 1.686 0 3.053-1.367 3.053-3.053s-1.367-3.052-3.053-3.052c-1.685 0-3.052 1.367-3.052 3.052z"/><path d="m371.817 223.935c-1.686 0-3.052 1.367-3.052 3.052 0 1.686 1.367 3.053 3.052 3.053 1.686 0 3.052-1.367 3.052-3.053.001-1.685-1.366-3.052-3.052-3.052z"/><path d="m371.817 243.614c-1.686 0-3.052 1.367-3.052 3.053s1.367 3.052 3.052 3.052c1.686 0 3.052-1.367 3.052-3.052.001-1.686-1.366-3.053-3.052-3.053z"/><path d="m371.817 263.293c-1.686 0-3.052 1.367-3.052 3.053s1.367 3.052 3.052 3.052c1.686 0 3.052-1.367 3.052-3.052.001-1.686-1.366-3.053-3.052-3.053z"/><path d="m362.348 233.404c-1.686 0-3.053 1.367-3.053 3.052 0 1.686 1.367 3.053 3.053 3.053s3.052-1.367 3.052-3.053c.001-1.685-1.366-3.052-3.052-3.052z"/><path d="m352.138 243.614c-1.686 0-3.052 1.367-3.052 3.053s1.367 3.052 3.052 3.052c1.686 0 3.053-1.367 3.053-3.052-.001-1.686-1.367-3.053-3.053-3.053z"/><path d="m362.348 253.083c-1.686 0-3.053 1.367-3.053 3.053s1.367 3.052 3.053 3.052 3.052-1.367 3.052-3.052c.001-1.686-1.366-3.053-3.052-3.053z"/><path d="m352.138 263.293c-1.686 0-3.052 1.367-3.052 3.053s1.367 3.052 3.052 3.052c1.686 0 3.053-1.367 3.053-3.052-.001-1.686-1.367-3.053-3.053-3.053z"/><path d="m362.348 272.763c-1.686 0-3.053 1.367-3.053 3.053s1.367 3.052 3.053 3.052 3.052-1.366 3.052-3.052c.001-1.687-1.366-3.053-3.052-3.053z"/><path d="m352.138 282.973c-1.686 0-3.052 1.366-3.052 3.052s1.367 3.052 3.052 3.052c1.686 0 3.053-1.366 3.053-3.052-.001-1.686-1.367-3.052-3.053-3.052z"/><path d="m362.348 292.442c-1.686 0-3.053 1.367-3.053 3.053s1.367 3.053 3.053 3.053 3.052-1.367 3.052-3.053c.001-1.686-1.366-3.053-3.052-3.053z"/><path d="m352.138 302.652c-1.686 0-3.052 1.367-3.052 3.052 0 1.686 1.367 3.053 3.052 3.053 1.686 0 3.053-1.367 3.053-3.053-.001-1.685-1.367-3.052-3.053-3.052z"/><path d="m362.348 312.121c-1.686 0-3.053 1.366-3.053 3.052s1.367 3.053 3.053 3.053 3.052-1.367 3.052-3.053c.001-1.685-1.366-3.052-3.052-3.052z"/><path d="m352.138 322.331c-1.686 0-3.052 1.367-3.052 3.052 0 1.686 1.367 3.053 3.052 3.053 1.686 0 3.053-1.367 3.053-3.053-.001-1.685-1.367-3.052-3.053-3.052z"/><path d="m342.669 272.763c-1.686 0-3.053 1.367-3.053 3.053s1.367 3.052 3.053 3.052 3.053-1.366 3.053-3.052c-.001-1.687-1.367-3.053-3.053-3.053z"/><path d="m332.459 282.973c-1.686 0-3.052 1.366-3.052 3.052s1.367 3.052 3.052 3.052c1.686 0 3.052-1.366 3.052-3.052s-1.367-3.052-3.052-3.052z"/><path d="m342.669 292.442c-1.686 0-3.053 1.367-3.053 3.053s1.367 3.053 3.053 3.053 3.053-1.367 3.053-3.053c-.001-1.686-1.367-3.053-3.053-3.053z"/><path d="m332.459 302.652c-1.686 0-3.052 1.367-3.052 3.052 0 1.686 1.367 3.053 3.052 3.053 1.686 0 3.052-1.367 3.052-3.053 0-1.685-1.367-3.052-3.052-3.052z"/><path d="m342.669 312.121c-1.686 0-3.053 1.366-3.053 3.052s1.367 3.053 3.053 3.053 3.053-1.367 3.053-3.053c-.001-1.685-1.367-3.052-3.053-3.052z"/><path d="m332.459 322.331c-1.686 0-3.052 1.367-3.052 3.052 0 1.686 1.367 3.053 3.052 3.053 1.686 0 3.052-1.367 3.052-3.053 0-1.685-1.367-3.052-3.052-3.052z"/><path d="m322.989 292.442c-1.686 0-3.053 1.367-3.053 3.053s1.367 3.053 3.053 3.053 3.053-1.367 3.053-3.053-1.367-3.053-3.053-3.053z"/><path d="m312.779 302.652c-1.686 0-3.052 1.367-3.052 3.052 0 1.686 1.367 3.053 3.052 3.053 1.686 0 3.052-1.367 3.052-3.053.001-1.685-1.366-3.052-3.052-3.052z"/><path d="m322.989 312.121c-1.686 0-3.053 1.366-3.053 3.052s1.367 3.053 3.053 3.053 3.053-1.367 3.053-3.053c0-1.685-1.367-3.052-3.053-3.052z"/><path d="m312.779 322.331c-1.686 0-3.052 1.367-3.052 3.052 0 1.686 1.367 3.053 3.052 3.053 1.686 0 3.052-1.367 3.052-3.053.001-1.685-1.366-3.052-3.052-3.052z"/><path d="m293.1 302.652c-1.686 0-3.053 1.367-3.053 3.052 0 1.686 1.367 3.053 3.053 3.053s3.052-1.367 3.052-3.053c.001-1.685-1.366-3.052-3.052-3.052z"/><path d="m303.31 312.121c-1.686 0-3.053 1.366-3.053 3.052s1.367 3.053 3.053 3.053 3.053-1.367 3.053-3.053c0-1.685-1.367-3.052-3.053-3.052z"/><path d="m293.1 322.331c-1.686 0-3.053 1.367-3.053 3.052 0 1.686 1.367 3.053 3.053 3.053s3.052-1.367 3.052-3.053c.001-1.685-1.366-3.052-3.052-3.052z"/><path d="m273.421 302.652c-1.686 0-3.053 1.367-3.053 3.052 0 1.686 1.367 3.053 3.053 3.053s3.052-1.367 3.052-3.053c0-1.685-1.366-3.052-3.052-3.052z"/><path d="m283.631 312.121c-1.686 0-3.053 1.366-3.053 3.052s1.367 3.053 3.053 3.053 3.053-1.367 3.053-3.053c-.001-1.685-1.367-3.052-3.053-3.052z"/><path d="m273.421 322.331c-1.686 0-3.053 1.367-3.053 3.052 0 1.686 1.367 3.053 3.053 3.053s3.052-1.367 3.052-3.053c0-1.685-1.366-3.052-3.052-3.052z"/><path d="m253.741 302.652c-1.686 0-3.052 1.367-3.052 3.052 0 1.686 1.367 3.053 3.052 3.053 1.686 0 3.053-1.367 3.053-3.053 0-1.685-1.367-3.052-3.053-3.052z"/><path d="m263.952 312.121c-1.686 0-3.053 1.366-3.053 3.052s1.367 3.053 3.053 3.053 3.052-1.367 3.052-3.053c0-1.685-1.367-3.052-3.052-3.052z"/><path d="m253.741 322.331c-1.686 0-3.052 1.367-3.052 3.052 0 1.686 1.367 3.053 3.052 3.053 1.686 0 3.053-1.367 3.053-3.053 0-1.685-1.367-3.052-3.053-3.052z"/><path d="m234.062 302.652c-1.686 0-3.052 1.367-3.052 3.052 0 1.686 1.367 3.053 3.052 3.053 1.686 0 3.053-1.367 3.053-3.053 0-1.685-1.367-3.052-3.053-3.052z"/><path d="m244.272 312.121c-1.686 0-3.052 1.366-3.052 3.052s1.367 3.053 3.052 3.053c1.686 0 3.053-1.367 3.053-3.053 0-1.685-1.367-3.052-3.053-3.052z"/><path d="m234.062 322.331c-1.686 0-3.052 1.367-3.052 3.052 0 1.686 1.367 3.053 3.052 3.053 1.686 0 3.053-1.367 3.053-3.053 0-1.685-1.367-3.052-3.053-3.052z"/><path d="m214.383 302.652c-1.686 0-3.053 1.367-3.053 3.052 0 1.686 1.367 3.053 3.053 3.053s3.053-1.367 3.053-3.053c-.001-1.685-1.367-3.052-3.053-3.052z"/><path d="m224.593 312.121c-1.686 0-3.053 1.366-3.053 3.052s1.367 3.053 3.053 3.053 3.053-1.367 3.053-3.053c-.001-1.685-1.367-3.052-3.053-3.052z"/><path d="m214.383 322.331c-1.686 0-3.053 1.367-3.053 3.052 0 1.686 1.367 3.053 3.053 3.053s3.053-1.367 3.053-3.053c-.001-1.685-1.367-3.052-3.053-3.052z"/><path d="m194.704 302.652c-1.686 0-3.052 1.367-3.052 3.052 0 1.686 1.367 3.053 3.052 3.053 1.686 0 3.052-1.367 3.052-3.053 0-1.685-1.367-3.052-3.052-3.052z"/><path d="m204.914 312.121c-1.686 0-3.053 1.366-3.053 3.052s1.367 3.053 3.053 3.053 3.053-1.367 3.053-3.053c-.001-1.685-1.368-3.052-3.053-3.052z"/><path d="m194.704 322.331c-1.686 0-3.052 1.367-3.052 3.052 0 1.686 1.367 3.053 3.052 3.053 1.686 0 3.052-1.367 3.052-3.053 0-1.685-1.367-3.052-3.052-3.052z"/><path d="m175.024 302.652c-1.686 0-3.052 1.367-3.052 3.052 0 1.686 1.367 3.053 3.052 3.053 1.686 0 3.053-1.367 3.053-3.053 0-1.685-1.367-3.052-3.053-3.052z"/><path d="m185.234 312.121c-1.686 0-3.053 1.366-3.053 3.052s1.367 3.053 3.053 3.053 3.052-1.367 3.052-3.053c.001-1.685-1.366-3.052-3.052-3.052z"/><path d="m175.024 322.331c-1.686 0-3.052 1.367-3.052 3.052 0 1.686 1.367 3.053 3.052 3.053 1.686 0 3.053-1.367 3.053-3.053 0-1.685-1.367-3.052-3.053-3.052z"/><path d="m155.345 302.652c-1.686 0-3.053 1.367-3.053 3.052 0 1.686 1.367 3.053 3.053 3.053s3.052-1.367 3.052-3.053c0-1.685-1.366-3.052-3.052-3.052z"/><path d="m165.555 312.121c-1.686 0-3.053 1.366-3.053 3.052s1.367 3.053 3.053 3.053 3.053-1.367 3.053-3.053c0-1.685-1.367-3.052-3.053-3.052z"/><path d="m155.345 322.331c-1.686 0-3.053 1.367-3.053 3.052 0 1.686 1.367 3.053 3.053 3.053s3.052-1.367 3.052-3.053c0-1.685-1.366-3.052-3.052-3.052z"/><path d="m135.666 282.973c-1.686 0-3.053 1.366-3.053 3.052s1.367 3.052 3.053 3.052 3.052-1.366 3.052-3.052-1.367-3.052-3.052-3.052z"/><path d="m145.876 292.442c-1.686 0-3.052 1.367-3.052 3.053s1.367 3.053 3.052 3.053c1.686 0 3.053-1.367 3.053-3.053-.001-1.686-1.367-3.053-3.053-3.053z"/><path d="m135.666 302.652c-1.686 0-3.053 1.367-3.053 3.052 0 1.686 1.367 3.053 3.053 3.053s3.052-1.367 3.052-3.053c0-1.685-1.367-3.052-3.052-3.052z"/><path d="m145.876 312.121c-1.686 0-3.052 1.366-3.052 3.052s1.367 3.053 3.052 3.053c1.686 0 3.053-1.367 3.053-3.053-.001-1.685-1.367-3.052-3.053-3.052z"/><path d="m135.666 322.331c-1.686 0-3.053 1.367-3.053 3.052 0 1.686 1.367 3.053 3.053 3.053s3.052-1.367 3.052-3.053c0-1.685-1.367-3.052-3.052-3.052z"/><path d="m115.986 263.293c-1.686 0-3.052 1.367-3.052 3.053s1.367 3.052 3.052 3.052c1.686 0 3.053-1.367 3.053-3.052 0-1.686-1.367-3.053-3.053-3.053z"/><path d="m126.196 272.763c-1.686 0-3.053 1.367-3.053 3.053s1.367 3.052 3.053 3.052 3.053-1.366 3.053-3.052c0-1.687-1.367-3.053-3.053-3.053z"/><path d="m115.986 282.973c-1.686 0-3.052 1.366-3.052 3.052s1.367 3.052 3.052 3.052c1.686 0 3.053-1.366 3.053-3.052s-1.367-3.052-3.053-3.052z"/><path d="m126.196 292.442c-1.686 0-3.053 1.367-3.053 3.053s1.367 3.053 3.053 3.053 3.053-1.367 3.053-3.053-1.367-3.053-3.053-3.053z"/><path d="m115.986 302.652c-1.686 0-3.052 1.367-3.052 3.052 0 1.686 1.367 3.053 3.052 3.053 1.686 0 3.053-1.367 3.053-3.053 0-1.685-1.367-3.052-3.053-3.052z"/><path d="m126.196 312.121c-1.686 0-3.053 1.366-3.053 3.052s1.367 3.053 3.053 3.053 3.053-1.367 3.053-3.053c0-1.685-1.367-3.052-3.053-3.052z"/><path d="m115.986 322.331c-1.686 0-3.052 1.367-3.052 3.052 0 1.686 1.367 3.053 3.052 3.053 1.686 0 3.053-1.367 3.053-3.053 0-1.685-1.367-3.052-3.053-3.052z"/><path d="m96.307 243.614c-1.686 0-3.053 1.367-3.053 3.053s1.367 3.052 3.053 3.052 3.052-1.367 3.052-3.052c0-1.686-1.366-3.053-3.052-3.053z"/><path d="m106.517 253.083c-1.686 0-3.052 1.367-3.052 3.053s1.367 3.052 3.052 3.052c1.686 0 3.053-1.367 3.053-3.052 0-1.686-1.367-3.053-3.053-3.053z"/><path d="m96.307 263.293c-1.686 0-3.053 1.367-3.053 3.053s1.367 3.052 3.053 3.052 3.052-1.367 3.052-3.052c0-1.686-1.366-3.053-3.052-3.053z"/><path d="m106.517 272.763c-1.686 0-3.052 1.367-3.052 3.053s1.367 3.052 3.052 3.052c1.686 0 3.053-1.366 3.053-3.052 0-1.687-1.367-3.053-3.053-3.053z"/><path d="m96.307 282.973c-1.686 0-3.053 1.366-3.053 3.052s1.367 3.052 3.053 3.052 3.052-1.366 3.052-3.052-1.366-3.052-3.052-3.052z"/><path d="m106.517 292.442c-1.686 0-3.052 1.367-3.052 3.053s1.367 3.053 3.052 3.053c1.686 0 3.053-1.367 3.053-3.053s-1.367-3.053-3.053-3.053z"/><path d="m96.307 302.652c-1.686 0-3.053 1.367-3.053 3.052 0 1.686 1.367 3.053 3.053 3.053s3.052-1.367 3.052-3.053c0-1.685-1.366-3.052-3.052-3.052z"/><path d="m106.517 312.121c-1.686 0-3.052 1.366-3.052 3.052s1.367 3.053 3.052 3.053c1.686 0 3.053-1.367 3.053-3.053 0-1.685-1.367-3.052-3.053-3.052z"/><path d="m96.307 328.436c1.686 0 3.052-1.367 3.052-3.053s-1.367-3.052-3.052-3.052c-.816 0-1.553.325-2.1.846l1.026 5.055c.335.126.694.204 1.074.204z"/><path d="m76.628 230.04c1.686 0 3.053-1.367 3.053-3.053 0-1.685-1.367-3.052-3.053-3.052-.63 0-1.216.192-1.702.519.333 1.833.662 3.665.999 5.497.226.054.46.089.703.089z"/><path d="m86.838 233.404c-1.686 0-3.053 1.367-3.053 3.052 0 1.686 1.367 3.053 3.053 3.053s3.052-1.367 3.052-3.053c0-1.685-1.366-3.052-3.052-3.052z"/><path d="m86.838 253.083c-1.686 0-3.053 1.367-3.053 3.053s1.367 3.052 3.053 3.052 3.052-1.367 3.052-3.052c0-1.686-1.366-3.053-3.052-3.053z"/><path d="m86.838 278.868c1.686 0 3.052-1.366 3.052-3.052s-1.367-3.053-3.052-3.053c-1.03 0-1.937.514-2.49 1.296.284 1.442.567 2.884.852 4.326.474.302 1.034.483 1.638.483z"/></g><path d="m151.194 413.413h-38.028c-2.222 0-4.024-1.802-4.024-4.025v-38.028c0-2.222 1.802-4.024 4.024-4.024h38.028c2.223 0 4.024 1.802 4.024 4.024v38.028c.001 2.223-1.801 4.025-4.024 4.025zm-34.003-8.049h29.979v-29.979h-29.979z"/><path d="m216.261 413.413h-38.028c-2.223 0-4.024-1.802-4.024-4.025v-38.028c0-2.222 1.802-4.024 4.024-4.024h38.028c2.222 0 4.024 1.802 4.024 4.024v38.028c.001 2.223-1.801 4.025-4.024 4.025zm-34.003-8.049h29.979v-29.979h-29.979z"/><path d="m281.328 413.413h-38.028c-2.223 0-4.024-1.802-4.024-4.025v-38.028c0-2.222 1.802-4.024 4.024-4.024h38.028c2.223 0 4.025 1.802 4.025 4.024v38.028c0 2.223-1.802 4.025-4.025 4.025zm-34.003-8.049h29.979v-29.979h-29.979z"/><path d="m346.395 413.413h-38.028c-2.223 0-4.025-1.802-4.025-4.025v-38.028c0-2.222 1.802-4.024 4.025-4.024h38.028c2.223 0 4.024 1.802 4.024 4.024v38.028c0 2.223-1.801 4.025-4.024 4.025zm-34.003-8.049h29.979v-29.979h-29.979z"/></g><path d="m506.558 79.095h.035c1.061 0 2.079-.419 2.833-1.166.762-.756 1.191-1.784 1.191-2.858v-29.208c0-1.074-.429-2.103-1.191-2.858-.762-.756-1.805-1.17-2.868-1.166l-268.716 2.367c-1.918-6.611-8.018-11.463-15.24-11.463h-1.778c-4.714 0-8.942 2.077-11.852 5.349-2.91-3.273-7.138-5.349-11.852-5.349h-1.778c-4.714 0-8.942 2.077-11.852 5.35-2.91-3.273-7.138-5.35-11.852-5.35h-1.778c-7.486 0-13.763 5.214-15.429 12.198l-8.203.072c-6.63.059-12.024 5.5-12.024 12.13v6.649c0 5.11 3.21 9.502 7.714 11.28-4.505 1.778-7.714 6.17-7.714 11.28v6.648c0 6.572 5.3 11.976 11.85 12.127l7.93.695v89.783h-84.54c-1.261 0-2.449.592-3.21 1.597l-63.692 84.21c-2.88 3.809-3.348 8.83-1.222 13.105 2.127 4.275 6.414 6.931 11.189 6.931h73.194c2.012 9.987 23.699 116.735 31.096 160.172 1.476 8.666 8.943 14.996 17.754 15.052l190.186 1.204h.117c8.686 0 16.166-6.163 17.809-14.696 6.015-31.227 26.191-138.993 30.511-161.732h73.876c4.775 0 9.062-2.656 11.189-6.93 2.127-4.275 1.659-9.297-1.221-13.106l-63.692-84.211c-.761-1.005-1.949-1.597-3.21-1.597h-151.639v-82.379l267.763 23.463c.117.011.234.016.351.016 1.002 0 1.973-.374 2.719-1.057.832-.762 1.306-1.839 1.306-2.967v-29.208c0-2.113-1.635-3.867-3.743-4.015l-268.396-18.791v-3.933zm-3.989-8.084-264.09-2.326v-16.436l264.09-2.326zm-307.227-30.22h1.778c4.316 0 7.827 3.512 7.827 7.828v146.985h-17.433v-146.985c.001-4.317 3.512-7.828 7.828-7.828zm-53.089 16.351c0-2.231 1.815-4.062 4.046-4.082l7.685-.068v14.948l-7.685-.068c-2.231-.02-4.046-1.85-4.046-4.082zm4.361 39.954c-.105-.01-.21-.015-.316-.016-2.231-.02-4.046-1.85-4.046-4.081v-6.648c0-2.187 1.744-3.989 3.914-4.078l7.817.547v14.922zm15.418-48.477c0-4.316 3.512-7.828 7.828-7.828h1.778c4.316 0 7.828 3.512 7.828 7.828v146.985h-17.434zm-149.523 244.78c-1.725 0-3.214-.923-3.983-2.467-.768-1.544-.606-3.287.435-4.664l58.998-78.007c4.935 28.344 10.473 56.91 16.129 85.138zm378.941-85.339 59.151 78.207c1.041 1.377 1.204 3.121.435 4.665-.768 1.545-2.257 2.466-3.982 2.466h-72.344c5.432-28.488 10.998-57.064 16.74-85.338zm-56.688 253.597c-.914 4.744-5.074 8.17-9.907 8.17-.022 0-.043 0-.065 0l-190.186-1.204c-4.9-.03-9.052-3.545-9.871-8.355-7.419-43.563-41.171-209.748-48.158-249.456l66.577 83.864c3.427 4.303 8.227 6.772 13.172 6.772h146.912c4.945 0 9.745-2.468 13.171-6.772l66.097-83.006c-10.488 51.915-41.732 218.781-47.742 249.987zm-24.65-171.994c-1.918 2.409-4.36 3.736-6.875 3.736h-146.912c-2.515 0-4.957-1.326-6.871-3.732l-67.567-85.11h295.994zm-97.115-94.059v-146.985c0-4.316 3.512-7.828 7.828-7.828h1.778c4.316 0 7.828 3.512 7.828 7.828v146.985zm289.572-88.38v21.063l-264.09-23.141v-16.411z" fill="#31373d"/></g></svg>