<svg id="Capa_1" enable-background="new 0 0 511.28 511.28" height="512" viewBox="0 0 511.28 511.28" width="512" xmlns="http://www.w3.org/2000/svg"><g><path d="m454.768 507.263h-400.081c-13.507 0-24.75-10.373-25.836-23.836l-5.211-64.603c-1.217-15.088 10.699-28.004 25.836-28.004h410.641c15.159 0 27.082 12.952 25.832 28.059l-5.349 64.603c-1.113 13.439-12.346 23.781-25.832 23.781z" fill="#e9c278"/><g fill="#f9fbfc"><path d="m478.045 398.031c-.523-.502-1.068-.982-1.632-1.438.349.66.925 1.175 1.632 1.438z"/><path d="m479.103 411.806c-1.686 0-3.053 1.366-3.053 3.053 0 1.686 1.367 3.053 3.053 3.053s3.053-1.367 3.053-3.053c0-1.687-1.367-3.053-3.053-3.053z"/><path d="m479.103 431.486c-1.686 0-3.053 1.367-3.053 3.053s1.367 3.053 3.053 3.053 3.053-1.367 3.053-3.053-1.367-3.053-3.053-3.053z"/><path d="m479.103 451.167c-1.686 0-3.053 1.367-3.053 3.053s1.367 3.053 3.053 3.053 3.053-1.367 3.053-3.053-1.367-3.053-3.053-3.053z"/><path d="m479.103 470.847c-1.686 0-3.053 1.367-3.053 3.053s1.367 3.052 3.053 3.052c.819 0 1.559-.327 2.107-.852l.333-4.018c-.556-.745-1.438-1.235-2.44-1.235z"/><path d="m476.05 493.581c0 .645.203 1.242.545 1.735.957-1.494 1.77-3.091 2.409-4.778-1.639.053-2.954 1.391-2.954 3.043z"/><path d="m469.633 401.595c-1.686 0-3.053 1.367-3.053 3.053s1.367 3.053 3.053 3.053 3.053-1.367 3.053-3.053-1.367-3.053-3.053-3.053z"/><path d="m469.633 427.381c1.686 0 3.053-1.367 3.053-3.053s-1.367-3.053-3.053-3.053-3.053 1.367-3.053 3.053c.001 1.686 1.367 3.053 3.053 3.053z"/><path d="m469.633 447.062c1.686 0 3.053-1.367 3.053-3.053s-1.367-3.053-3.053-3.053-3.053 1.367-3.053 3.053c.001 1.686 1.367 3.053 3.053 3.053z"/><path d="m459.423 451.167c-1.686 0-3.053 1.367-3.053 3.053s1.367 3.053 3.053 3.053 3.053-1.367 3.053-3.053c-.001-1.686-1.368-3.053-3.053-3.053z"/><path d="m469.633 466.742c1.686 0 3.053-1.367 3.053-3.053s-1.367-3.053-3.053-3.053-3.053 1.367-3.053 3.053c.001 1.686 1.367 3.053 3.053 3.053z"/><path d="m459.423 470.847c-1.686 0-3.053 1.367-3.053 3.053s1.367 3.052 3.053 3.052 3.053-1.367 3.053-3.052c-.001-1.686-1.368-3.053-3.053-3.053z"/><path d="m469.633 486.423c1.686 0 3.053-1.367 3.053-3.053s-1.367-3.053-3.053-3.053-3.053 1.367-3.053 3.053c.001 1.686 1.367 3.053 3.053 3.053z"/><path d="m459.423 496.633c1.686 0 3.053-1.367 3.053-3.053s-1.367-3.053-3.053-3.053-3.053 1.367-3.053 3.053c0 1.687 1.367 3.053 3.053 3.053z"/><path d="m469.633 499.998c-1.686 0-3.053 1.367-3.053 3.053 0 .437.095.85.26 1.226 1.779-.938 3.437-2.078 4.944-3.39-.551-.55-1.311-.889-2.151-.889z"/><path d="m449.953 460.637c-1.686 0-3.053 1.367-3.053 3.053s1.367 3.053 3.053 3.053 3.053-1.367 3.053-3.053c-.001-1.686-1.367-3.053-3.053-3.053z"/><path d="m436.689 473.9c0 1.686 1.367 3.052 3.053 3.052s3.053-1.367 3.053-3.052c0-1.686-1.367-3.053-3.053-3.053s-3.053 1.367-3.053 3.053z"/><path d="m449.953 480.317c-1.686 0-3.053 1.367-3.053 3.053s1.367 3.053 3.053 3.053 3.053-1.367 3.053-3.053c-.001-1.686-1.367-3.053-3.053-3.053z"/><path d="m439.742 496.633c1.686 0 3.053-1.367 3.053-3.053s-1.367-3.053-3.053-3.053-3.053 1.367-3.053 3.053c0 1.687 1.367 3.053 3.053 3.053z"/><path d="m449.953 499.998c-1.686 0-3.053 1.367-3.053 3.053s1.367 3.053 3.053 3.053 3.053-1.367 3.053-3.053c-.001-1.686-1.367-3.053-3.053-3.053z"/><path d="m430.272 460.637c-1.686 0-3.053 1.367-3.053 3.053s1.367 3.053 3.053 3.053 3.053-1.367 3.053-3.053-1.367-3.053-3.053-3.053z"/><path d="m420.061 470.847c-1.686 0-3.052 1.367-3.052 3.053s1.367 3.052 3.052 3.052c1.686 0 3.053-1.367 3.053-3.052 0-1.686-1.366-3.053-3.053-3.053z"/><path d="m430.272 480.317c-1.686 0-3.053 1.367-3.053 3.053s1.367 3.053 3.053 3.053 3.053-1.367 3.053-3.053-1.367-3.053-3.053-3.053z"/><path d="m420.061 490.528c-1.686 0-3.052 1.367-3.052 3.053s1.367 3.053 3.052 3.053c1.686 0 3.053-1.367 3.053-3.053s-1.366-3.053-3.053-3.053z"/><path d="m430.272 499.998c-1.686 0-3.053 1.367-3.053 3.053s1.367 3.053 3.053 3.053 3.053-1.367 3.053-3.053-1.367-3.053-3.053-3.053z"/><path d="m410.592 460.637c-1.686 0-3.053 1.367-3.053 3.053s1.367 3.053 3.053 3.053 3.053-1.367 3.053-3.053c-.001-1.686-1.368-3.053-3.053-3.053z"/><path d="m400.381 470.847c-1.686 0-3.053 1.367-3.053 3.053s1.367 3.052 3.053 3.052 3.053-1.367 3.053-3.052c0-1.686-1.367-3.053-3.053-3.053z"/><path d="m410.592 480.317c-1.686 0-3.053 1.367-3.053 3.053s1.367 3.053 3.053 3.053 3.053-1.367 3.053-3.053c-.001-1.686-1.368-3.053-3.053-3.053z"/><path d="m400.381 490.528c-1.686 0-3.053 1.367-3.053 3.053s1.367 3.053 3.053 3.053 3.053-1.367 3.053-3.053-1.367-3.053-3.053-3.053z"/><path d="m410.592 499.998c-1.686 0-3.053 1.367-3.053 3.053s1.367 3.053 3.053 3.053 3.053-1.367 3.053-3.053c-.001-1.686-1.368-3.053-3.053-3.053z"/><path d="m390.911 460.637c-1.686 0-3.053 1.367-3.053 3.053s1.367 3.053 3.053 3.053 3.053-1.367 3.053-3.053-1.367-3.053-3.053-3.053z"/><path d="m380.7 470.847c-1.686 0-3.053 1.367-3.053 3.053s1.367 3.052 3.053 3.052 3.053-1.367 3.053-3.052c0-1.686-1.367-3.053-3.053-3.053z"/><path d="m390.911 480.317c-1.686 0-3.053 1.367-3.053 3.053s1.367 3.053 3.053 3.053 3.053-1.367 3.053-3.053-1.367-3.053-3.053-3.053z"/><path d="m380.7 490.528c-1.686 0-3.053 1.367-3.053 3.053s1.367 3.053 3.053 3.053 3.053-1.367 3.053-3.053-1.367-3.053-3.053-3.053z"/><path d="m390.911 499.998c-1.686 0-3.053 1.367-3.053 3.053s1.367 3.053 3.053 3.053 3.053-1.367 3.053-3.053-1.367-3.053-3.053-3.053z"/><path d="m371.231 460.637c-1.686 0-3.053 1.367-3.053 3.053s1.367 3.053 3.053 3.053 3.053-1.367 3.053-3.053c-.001-1.686-1.367-3.053-3.053-3.053z"/><path d="m361.02 470.847c-1.686 0-3.053 1.367-3.053 3.053s1.367 3.052 3.053 3.052 3.053-1.367 3.053-3.052c0-1.686-1.367-3.053-3.053-3.053z"/><path d="m371.231 480.317c-1.686 0-3.053 1.367-3.053 3.053s1.367 3.053 3.053 3.053 3.053-1.367 3.053-3.053c-.001-1.686-1.367-3.053-3.053-3.053z"/><path d="m361.02 490.528c-1.686 0-3.053 1.367-3.053 3.053s1.367 3.053 3.053 3.053 3.053-1.367 3.053-3.053-1.367-3.053-3.053-3.053z"/><path d="m371.231 499.998c-1.686 0-3.053 1.367-3.053 3.053s1.367 3.053 3.053 3.053 3.053-1.367 3.053-3.053c-.001-1.686-1.367-3.053-3.053-3.053z"/><path d="m351.55 460.637c-1.686 0-3.053 1.367-3.053 3.053s1.367 3.053 3.053 3.053 3.053-1.367 3.053-3.053-1.367-3.053-3.053-3.053z"/><path d="m341.339 470.847c-1.686 0-3.053 1.367-3.053 3.053s1.367 3.052 3.053 3.052 3.053-1.367 3.053-3.052c0-1.686-1.367-3.053-3.053-3.053z"/><path d="m351.55 480.317c-1.686 0-3.053 1.367-3.053 3.053s1.367 3.053 3.053 3.053 3.053-1.367 3.053-3.053-1.367-3.053-3.053-3.053z"/><path d="m341.339 490.528c-1.686 0-3.053 1.367-3.053 3.053s1.367 3.053 3.053 3.053 3.053-1.367 3.053-3.053-1.367-3.053-3.053-3.053z"/><path d="m351.55 499.998c-1.686 0-3.053 1.367-3.053 3.053s1.367 3.053 3.053 3.053 3.053-1.367 3.053-3.053-1.367-3.053-3.053-3.053z"/><path d="m331.869 460.637c-1.686 0-3.053 1.367-3.053 3.053s1.367 3.053 3.053 3.053 3.053-1.367 3.053-3.053-1.367-3.053-3.053-3.053z"/><path d="m321.658 470.847c-1.686 0-3.053 1.367-3.053 3.053s1.367 3.052 3.053 3.052 3.053-1.367 3.053-3.052c0-1.686-1.366-3.053-3.053-3.053z"/><path d="m331.869 480.317c-1.686 0-3.053 1.367-3.053 3.053s1.367 3.053 3.053 3.053 3.053-1.367 3.053-3.053-1.367-3.053-3.053-3.053z"/><path d="m321.658 490.528c-1.686 0-3.053 1.367-3.053 3.053s1.367 3.053 3.053 3.053 3.053-1.367 3.053-3.053-1.366-3.053-3.053-3.053z"/><path d="m331.869 499.998c-1.686 0-3.053 1.367-3.053 3.053s1.367 3.053 3.053 3.053 3.053-1.367 3.053-3.053-1.367-3.053-3.053-3.053z"/><path d="m312.189 460.637c-1.686 0-3.053 1.367-3.053 3.053s1.367 3.053 3.053 3.053 3.053-1.367 3.053-3.053-1.367-3.053-3.053-3.053z"/><path d="m301.978 470.847c-1.686 0-3.053 1.367-3.053 3.053s1.367 3.052 3.053 3.052 3.053-1.367 3.053-3.052c0-1.686-1.367-3.053-3.053-3.053z"/><path d="m312.189 480.317c-1.686 0-3.053 1.367-3.053 3.053s1.367 3.053 3.053 3.053 3.053-1.367 3.053-3.053-1.367-3.053-3.053-3.053z"/><path d="m301.978 490.528c-1.686 0-3.053 1.367-3.053 3.053s1.367 3.053 3.053 3.053 3.053-1.367 3.053-3.053-1.367-3.053-3.053-3.053z"/><path d="m312.189 499.998c-1.686 0-3.053 1.367-3.053 3.053s1.367 3.053 3.053 3.053 3.053-1.367 3.053-3.053-1.367-3.053-3.053-3.053z"/><path d="m292.508 460.637c-1.686 0-3.053 1.367-3.053 3.053s1.367 3.053 3.053 3.053 3.053-1.367 3.053-3.053-1.367-3.053-3.053-3.053z"/><path d="m282.298 470.847c-1.686 0-3.053 1.367-3.053 3.053s1.367 3.052 3.053 3.052 3.052-1.367 3.052-3.052c0-1.686-1.367-3.053-3.052-3.053z"/><path d="m292.508 480.317c-1.686 0-3.053 1.367-3.053 3.053s1.367 3.053 3.053 3.053 3.053-1.367 3.053-3.053-1.367-3.053-3.053-3.053z"/><path d="m282.298 490.528c-1.686 0-3.053 1.367-3.053 3.053s1.367 3.053 3.053 3.053 3.052-1.367 3.052-3.053-1.367-3.053-3.052-3.053z"/><path d="m292.508 499.998c-1.686 0-3.053 1.367-3.053 3.053s1.367 3.053 3.053 3.053 3.053-1.367 3.053-3.053-1.367-3.053-3.053-3.053z"/><path d="m272.828 460.637c-1.686 0-3.053 1.367-3.053 3.053s1.367 3.053 3.053 3.053 3.053-1.367 3.053-3.053c-.001-1.686-1.367-3.053-3.053-3.053z"/><path d="m262.617 470.847c-1.686 0-3.053 1.367-3.053 3.053s1.367 3.052 3.053 3.052 3.053-1.367 3.053-3.052c0-1.686-1.367-3.053-3.053-3.053z"/><path d="m272.828 480.317c-1.686 0-3.053 1.367-3.053 3.053s1.367 3.053 3.053 3.053 3.053-1.367 3.053-3.053c-.001-1.686-1.367-3.053-3.053-3.053z"/><path d="m262.617 490.528c-1.686 0-3.053 1.367-3.053 3.053s1.367 3.053 3.053 3.053 3.053-1.367 3.053-3.053-1.367-3.053-3.053-3.053z"/><path d="m272.828 499.998c-1.686 0-3.053 1.367-3.053 3.053s1.367 3.053 3.053 3.053 3.053-1.367 3.053-3.053c-.001-1.686-1.367-3.053-3.053-3.053z"/><path d="m253.147 460.637c-1.686 0-3.053 1.367-3.053 3.053s1.367 3.053 3.053 3.053 3.052-1.367 3.052-3.053c.001-1.686-1.366-3.053-3.052-3.053z"/><path d="m242.936 470.847c-1.686 0-3.053 1.367-3.053 3.053s1.367 3.052 3.053 3.052 3.053-1.367 3.053-3.052c0-1.686-1.367-3.053-3.053-3.053z"/><path d="m253.147 480.317c-1.686 0-3.053 1.367-3.053 3.053s1.367 3.053 3.053 3.053 3.052-1.367 3.052-3.053c.001-1.686-1.366-3.053-3.052-3.053z"/><path d="m242.936 490.528c-1.686 0-3.053 1.367-3.053 3.053s1.367 3.053 3.053 3.053 3.053-1.367 3.053-3.053-1.367-3.053-3.053-3.053z"/><path d="m253.147 499.998c-1.686 0-3.053 1.367-3.053 3.053s1.367 3.053 3.053 3.053 3.052-1.367 3.052-3.053c.001-1.686-1.366-3.053-3.052-3.053z"/><path d="m233.467 460.637c-1.686 0-3.053 1.367-3.053 3.053s1.367 3.053 3.053 3.053 3.053-1.367 3.053-3.053c-.001-1.686-1.367-3.053-3.053-3.053z"/><path d="m223.256 470.847c-1.686 0-3.053 1.367-3.053 3.053s1.366 3.052 3.053 3.052c1.686 0 3.053-1.367 3.053-3.052-.001-1.686-1.367-3.053-3.053-3.053z"/><path d="m233.467 480.317c-1.686 0-3.053 1.367-3.053 3.053s1.367 3.053 3.053 3.053 3.053-1.367 3.053-3.053c-.001-1.686-1.367-3.053-3.053-3.053z"/><path d="m223.256 490.528c-1.686 0-3.053 1.367-3.053 3.053s1.366 3.053 3.053 3.053c1.686 0 3.053-1.367 3.053-3.053-.001-1.686-1.367-3.053-3.053-3.053z"/><path d="m233.467 499.998c-1.686 0-3.053 1.367-3.053 3.053s1.367 3.053 3.053 3.053 3.053-1.367 3.053-3.053c-.001-1.686-1.367-3.053-3.053-3.053z"/><path d="m213.786 460.637c-1.686 0-3.053 1.367-3.053 3.053s1.367 3.053 3.053 3.053 3.053-1.367 3.053-3.053-1.367-3.053-3.053-3.053z"/><path d="m203.575 470.847c-1.686 0-3.053 1.367-3.053 3.053s1.366 3.052 3.053 3.052c1.686 0 3.053-1.367 3.053-3.052 0-1.686-1.367-3.053-3.053-3.053z"/><path d="m213.786 480.317c-1.686 0-3.053 1.367-3.053 3.053s1.367 3.053 3.053 3.053 3.053-1.367 3.053-3.053-1.367-3.053-3.053-3.053z"/><path d="m203.575 490.528c-1.686 0-3.053 1.367-3.053 3.053s1.366 3.053 3.053 3.053c1.686 0 3.053-1.367 3.053-3.053s-1.367-3.053-3.053-3.053z"/><path d="m213.786 499.998c-1.686 0-3.053 1.367-3.053 3.053s1.367 3.053 3.053 3.053 3.053-1.367 3.053-3.053-1.367-3.053-3.053-3.053z"/><path d="m194.106 460.637c-1.686 0-3.053 1.367-3.053 3.053s1.367 3.053 3.053 3.053 3.053-1.367 3.053-3.053c-.001-1.686-1.368-3.053-3.053-3.053z"/><path d="m183.895 470.847c-1.686 0-3.053 1.367-3.053 3.053s1.367 3.052 3.053 3.052 3.052-1.367 3.052-3.052c0-1.686-1.366-3.053-3.052-3.053z"/><path d="m194.106 480.317c-1.686 0-3.053 1.367-3.053 3.053s1.367 3.053 3.053 3.053 3.053-1.367 3.053-3.053c-.001-1.686-1.368-3.053-3.053-3.053z"/><path d="m183.895 490.528c-1.686 0-3.053 1.367-3.053 3.053s1.367 3.053 3.053 3.053 3.052-1.367 3.052-3.053-1.366-3.053-3.052-3.053z"/><path d="m194.106 499.998c-1.686 0-3.053 1.367-3.053 3.053s1.367 3.053 3.053 3.053 3.053-1.367 3.053-3.053c-.001-1.686-1.368-3.053-3.053-3.053z"/><path d="m174.425 460.637c-1.686 0-3.053 1.367-3.053 3.053s1.367 3.053 3.053 3.053 3.053-1.367 3.053-3.053-1.367-3.053-3.053-3.053z"/><path d="m164.214 470.847c-1.686 0-3.053 1.367-3.053 3.053s1.367 3.052 3.053 3.052 3.053-1.367 3.053-3.052c0-1.686-1.367-3.053-3.053-3.053z"/><path d="m174.425 480.317c-1.686 0-3.053 1.367-3.053 3.053s1.367 3.053 3.053 3.053 3.053-1.367 3.053-3.053-1.367-3.053-3.053-3.053z"/><path d="m164.214 490.528c-1.686 0-3.053 1.367-3.053 3.053s1.367 3.053 3.053 3.053 3.053-1.367 3.053-3.053-1.367-3.053-3.053-3.053z"/><path d="m174.425 499.998c-1.686 0-3.053 1.367-3.053 3.053s1.367 3.053 3.053 3.053 3.053-1.367 3.053-3.053-1.367-3.053-3.053-3.053z"/><path d="m154.744 460.637c-1.686 0-3.053 1.367-3.053 3.053s1.367 3.053 3.053 3.053 3.053-1.367 3.053-3.053-1.367-3.053-3.053-3.053z"/><path d="m144.534 470.847c-1.686 0-3.053 1.367-3.053 3.053s1.367 3.052 3.053 3.052 3.053-1.367 3.053-3.052c-.001-1.686-1.367-3.053-3.053-3.053z"/><path d="m154.744 480.317c-1.686 0-3.053 1.367-3.053 3.053s1.367 3.053 3.053 3.053 3.053-1.367 3.053-3.053-1.367-3.053-3.053-3.053z"/><path d="m144.534 490.528c-1.686 0-3.053 1.367-3.053 3.053s1.367 3.053 3.053 3.053 3.053-1.367 3.053-3.053c-.001-1.686-1.367-3.053-3.053-3.053z"/><path d="m154.744 499.998c-1.686 0-3.053 1.367-3.053 3.053s1.367 3.053 3.053 3.053 3.053-1.367 3.053-3.053-1.367-3.053-3.053-3.053z"/><path d="m135.064 460.637c-1.686 0-3.053 1.367-3.053 3.053s1.367 3.053 3.053 3.053 3.053-1.367 3.053-3.053-1.367-3.053-3.053-3.053z"/><path d="m124.853 470.847c-1.686 0-3.052 1.367-3.052 3.053s1.367 3.052 3.052 3.052c1.686 0 3.053-1.367 3.053-3.052 0-1.686-1.367-3.053-3.053-3.053z"/><path d="m135.064 480.317c-1.686 0-3.053 1.367-3.053 3.053s1.367 3.053 3.053 3.053 3.053-1.367 3.053-3.053-1.367-3.053-3.053-3.053z"/><path d="m124.853 490.528c-1.686 0-3.052 1.367-3.052 3.053s1.367 3.053 3.052 3.053c1.686 0 3.053-1.367 3.053-3.053s-1.367-3.053-3.053-3.053z"/><path d="m135.064 499.998c-1.686 0-3.053 1.367-3.053 3.053s1.367 3.053 3.053 3.053 3.053-1.367 3.053-3.053-1.367-3.053-3.053-3.053z"/><path d="m115.383 460.637c-1.686 0-3.053 1.367-3.053 3.053s1.367 3.053 3.053 3.053 3.053-1.367 3.053-3.053-1.367-3.053-3.053-3.053z"/><path d="m105.172 470.847c-1.686 0-3.053 1.367-3.053 3.053s1.367 3.052 3.053 3.052 3.053-1.367 3.053-3.052c0-1.686-1.367-3.053-3.053-3.053z"/><path d="m115.383 480.317c-1.686 0-3.053 1.367-3.053 3.053s1.367 3.053 3.053 3.053 3.053-1.367 3.053-3.053-1.367-3.053-3.053-3.053z"/><path d="m105.172 490.528c-1.686 0-3.053 1.367-3.053 3.053s1.367 3.053 3.053 3.053 3.053-1.367 3.053-3.053-1.367-3.053-3.053-3.053z"/><path d="m115.383 499.998c-1.686 0-3.053 1.367-3.053 3.053s1.367 3.053 3.053 3.053 3.053-1.367 3.053-3.053-1.367-3.053-3.053-3.053z"/><path d="m95.703 460.637c-1.686 0-3.053 1.367-3.053 3.053s1.367 3.053 3.053 3.053 3.053-1.367 3.053-3.053c-.001-1.686-1.367-3.053-3.053-3.053z"/><path d="m85.492 470.847c-1.686 0-3.053 1.367-3.053 3.053s1.367 3.052 3.053 3.052 3.053-1.367 3.053-3.052c0-1.686-1.367-3.053-3.053-3.053z"/><path d="m95.703 480.317c-1.686 0-3.053 1.367-3.053 3.053s1.367 3.053 3.053 3.053 3.053-1.367 3.053-3.053c-.001-1.686-1.367-3.053-3.053-3.053z"/><path d="m85.492 490.528c-1.686 0-3.053 1.367-3.053 3.053s1.367 3.053 3.053 3.053 3.053-1.367 3.053-3.053-1.367-3.053-3.053-3.053z"/><path d="m95.703 499.998c-1.686 0-3.053 1.367-3.053 3.053s1.367 3.053 3.053 3.053 3.053-1.367 3.053-3.053c-.001-1.686-1.367-3.053-3.053-3.053z"/><path d="m76.022 460.637c-1.686 0-3.053 1.367-3.053 3.053s1.367 3.053 3.053 3.053 3.053-1.367 3.053-3.053-1.367-3.053-3.053-3.053z"/><path d="m65.811 470.847c-1.686 0-3.053 1.367-3.053 3.053s1.367 3.052 3.053 3.052 3.053-1.367 3.053-3.052c0-1.686-1.367-3.053-3.053-3.053z"/><path d="m76.022 480.317c-1.686 0-3.053 1.367-3.053 3.053s1.367 3.053 3.053 3.053 3.053-1.367 3.053-3.053-1.367-3.053-3.053-3.053z"/><path d="m65.811 490.528c-1.686 0-3.053 1.367-3.053 3.053s1.367 3.053 3.053 3.053 3.053-1.367 3.053-3.053-1.367-3.053-3.053-3.053z"/><path d="m76.022 499.998c-1.686 0-3.053 1.367-3.053 3.053s1.367 3.053 3.053 3.053 3.053-1.367 3.053-3.053-1.367-3.053-3.053-3.053z"/><path d="m56.342 460.637c-1.686 0-3.053 1.367-3.053 3.053s1.367 3.053 3.053 3.053 3.053-1.367 3.053-3.053c-.001-1.686-1.368-3.053-3.053-3.053z"/><path d="m46.131 470.847c-1.686 0-3.053 1.367-3.053 3.053s1.367 3.052 3.053 3.052 3.053-1.367 3.053-3.052c0-1.686-1.367-3.053-3.053-3.053z"/><path d="m56.342 480.317c-1.686 0-3.053 1.367-3.053 3.053s1.367 3.053 3.053 3.053 3.053-1.367 3.053-3.053c-.001-1.686-1.368-3.053-3.053-3.053z"/><path d="m46.131 490.528c-1.686 0-3.053 1.367-3.053 3.053s1.367 3.053 3.053 3.053 3.053-1.367 3.053-3.053-1.367-3.053-3.053-3.053z"/><path d="m59.394 503.051c0-1.686-1.367-3.053-3.053-3.053s-3.053 1.367-3.053 3.053 1.367 3.053 3.053 3.053c1.686-.001 3.053-1.367 3.053-3.053z"/><path d="m36.661 460.637c-1.686 0-3.053 1.367-3.053 3.053s1.367 3.053 3.053 3.053 3.053-1.367 3.053-3.053-1.367-3.053-3.053-3.053z"/><path d="m27.866 471.211.413 5.121c.739-.557 1.224-1.434 1.224-2.431 0-1.173-.668-2.179-1.637-2.69z"/><path d="m36.661 480.317c-1.686 0-3.053 1.367-3.053 3.053s1.367 3.053 3.053 3.053 3.053-1.367 3.053-3.053-1.367-3.053-3.053-3.053z"/><path d="m36.706 500.002c.921.887 1.905 1.707 2.947 2.45-.275-1.384-1.486-2.428-2.947-2.45z"/></g><path d="m255.681 4.018c191.833 0 230.228 120.943 236.832 182.052 2.262 20.934-14.066 39.209-35.061 39.209h-403.623c-21.001 0-37.333-18.286-35.059-39.226 6.638-61.112 45.094-182.035 236.911-182.035z" fill="#e9c278"/><path d="m416.233 280.818h-332.019c-14.045 0-25.43-11.385-25.43-25.43v-4.134c0-14.045 11.385-25.43 25.43-25.43h332.019c14.045 0 25.43 11.385 25.43 25.43v4.134c0 14.044-11.386 25.43-25.43 25.43z" fill="#eaa895"/><path d="m460.117 386.802h-16.821c10.834-6.63 18.08-18.573 18.08-32.178v-5.147c0-15.676-9.62-29.143-23.264-34.82 4.624-3.948 7.57-9.807 7.57-16.349 0-8.446-4.906-15.75-12.007-19.266 7.278-5.39 12.007-14.036 12.007-23.768v-3.903c0-8.769-3.841-16.653-9.924-22.072h21.695c11.116 0 21.755-4.75 29.191-13.032 7.472-8.323 11.068-19.486 9.864-30.627-3.424-31.686-14.874-77.569-49.975-116.211-41.847-46.071-106.059-69.429-190.852-69.429-84.787 0-149.005 23.355-190.871 69.416-35.12 38.638-46.593 84.518-50.034 116.204-1.211 11.143 2.382 22.309 9.854 30.637 7.436 8.287 18.079 13.04 29.199 13.04h10.861c-6.083 5.419-9.924 13.304-9.924 22.072v3.903c0 9.732 4.729 18.378 12.007 23.768-7.101 3.517-12.007 10.82-12.007 19.266 0 6.542 2.946 12.401 7.57 16.349-13.644 5.678-23.264 19.145-23.264 34.82v5.147c0 13.605 7.246 25.549 18.08 32.178h-7.676c-8.334 0-16.354 3.513-22.005 9.638-5.65 6.125-8.507 14.401-7.837 22.707l5.211 64.603c1.246 15.438 14.354 27.531 29.842 27.531h400.081c15.455 0 28.56-12.065 29.836-27.468l5.349-64.603c.689-8.317-2.158-16.608-7.811-22.747-5.652-6.138-13.68-9.659-22.025-9.659zm-429.505-175.912c-5.951-6.632-8.811-15.526-7.847-24.403 5.827-53.655 40.189-178.451 232.916-178.451 192.742 0 227.038 124.806 232.837 178.465.958 8.875-1.904 17.767-7.855 24.395-5.913 6.587-14.373 10.365-23.211 10.365h-403.623c-8.841 0-17.304-3.781-23.217-10.371zm32.19 44.383v-3.903c0-11.87 9.657-21.527 21.528-21.527h331.788c11.871 0 21.528 9.657 21.528 21.527v3.903c0 11.87-9.657 21.527-21.528 21.527h-331.788c-11.871-.001-21.528-9.657-21.528-21.527zm13.471 56.505c-7.428 0-13.471-6.043-13.471-13.471s6.043-13.471 13.471-13.471h8.057 331.788 8.057c7.428 0 13.471 6.043 13.471 13.471s-6.043 13.471-13.471 13.471h-.497-35.403-39.248-41.533-30.865-199.859zm405.672 106.769-5.349 64.603c-.933 11.268-10.52 20.095-21.827 20.095h-400.082c-11.33 0-20.921-8.847-21.831-20.141l-5.211-64.602c-.497-6.166 1.538-12.065 5.733-16.612s9.912-7.051 16.098-7.051h410.641c6.195 0 11.918 2.51 16.114 7.068 4.195 4.557 6.225 10.466 5.714 16.64z" fill="#31373d"/><path d="m357.423 361.612c3.009 3.001 7.001 4.648 11.258 4.591 8.588-.082 15.575-7.137 15.575-15.726v-34.681c0-2.219 1.799-4.018 4.018-4.018h35.9c7.428 0 13.471-6.043 13.471-13.471s-6.043-13.471-13.471-13.471h-347.901c-7.428 0-13.471 6.043-13.471 13.471s6.043 13.471 13.471 13.471h200.355c2.219 0 4.018 1.799 4.018 4.018v15.657c0 6.241 5.077 11.318 11.317 11.318 6.165 0 11.241-5.014 11.317-11.178l.195-15.846c.027-2.199 1.819-3.969 4.018-3.969h41.533c1.07 0 2.096.427 2.851 1.187.754.759 1.174 1.789 1.167 2.859l-.24 34.543c-.031 4.25 1.61 8.243 4.619 11.245z" fill="#f9fbfc"/><g fill="#31373d"><path d="m143.993 78.671c-6.448 0-12.259-4.461-13.716-11.015-1.684-7.582 3.096-15.094 10.678-16.779l11.173-2.483c7.587-1.69 15.094 3.096 16.78 10.677 1.684 7.582-3.096 15.095-10.678 16.779l-11.173 2.483c-1.027.228-2.054.338-3.064.338z"/><path d="m303.521 79.809c-1.129 0-2.276-.137-3.422-.423l-11.104-2.776c-7.535-1.883-12.116-9.519-10.233-17.054 1.883-7.536 9.512-12.118 17.055-10.233l11.104 2.776c7.535 1.883 12.116 9.519 10.233 17.054-1.597 6.39-7.332 10.656-13.633 10.656z"/><path d="m233.816 114.827h-11.446c-7.767 0-14.063-6.297-14.063-14.063 0-7.767 6.296-14.063 14.063-14.063h11.446c7.767 0 14.063 6.296 14.063 14.063.001 7.767-6.295 14.063-14.063 14.063z"/><path d="m375.435 104.146c-4.574 0-9.059-2.228-11.762-6.336-4.268-6.489-2.469-15.209 4.02-19.478l9.563-6.291c6.486-4.268 15.209-2.47 19.479 4.02 4.268 6.489 2.469 15.209-4.02 19.478l-9.563 6.291c-2.382 1.567-5.065 2.316-7.717 2.316z"/></g></g></svg>