<svg id="Capa_1" enable-background="new 0 0 509.934 509.934" height="512" viewBox="0 0 509.934 509.934" width="512" xmlns="http://www.w3.org/2000/svg"><g><path d="m501.415 307.752c-22.224-50.376-124.103-88.442-246.448-88.442s-224.224 38.066-246.448 88.442c-2.954 6.695-4.519 13.605-4.519 20.675 0 60.263 112.362 109.116 250.967 109.116s250.967-48.853 250.967-109.116c0-7.07-1.565-13.98-4.519-20.675z" fill="#f9fbfc"/><path d="m446.019 224.887c-2.972-6.737-7.784-13.189-14.196-19.256 11.356-10.741 17.699-22.692 17.699-35.289 0-5.48-1.213-10.837-3.503-16.027-17.229-39.052-96.207-68.562-191.052-68.562-94.844 0-173.823 29.51-191.052 68.562-2.29 5.19-3.503 10.547-3.503 16.027 0 12.596 6.342 24.548 17.699 35.289-6.412 6.066-11.223 12.519-14.196 19.256-2.29 5.19-3.503 10.547-3.503 16.028 0 11.134 4.957 21.763 13.948 31.499-4.559 4.939-8.085 10.108-10.445 15.458-2.29 5.19-3.503 10.547-3.503 16.027 0 46.717 87.105 84.589 194.555 84.589s194.555-37.872 194.555-84.589c0-5.48-1.213-10.837-3.503-16.027-2.36-5.35-5.886-10.518-10.445-15.458 8.991-9.736 13.948-20.366 13.948-31.499 0-5.481-1.213-10.838-3.503-16.028z" fill="#e9c278"/><g fill="#f9fbfc"><g><path d="m444.354 301.137c-1.687 0-3.055 1.368-3.055 3.055 0 1.688 1.368 3.056 3.055 3.056s3.055-1.368 3.055-3.056c.001-1.687-1.367-3.055-3.055-3.055z"/><path d="m431.08 314.412c0 1.688 1.368 3.055 3.055 3.055s3.055-1.368 3.055-3.055-1.368-3.055-3.055-3.055-3.055 1.367-3.055 3.055z"/><path d="m434.135 331.054c-1.687 0-3.055 1.368-3.055 3.055 0 1.612 1.252 2.918 2.834 3.033 1.136-1.154 2.209-2.322 3.229-3.503-.227-1.462-1.481-2.585-3.008-2.585z"/><path d="m421.602 323.89c0 1.688 1.368 3.055 3.055 3.055 1.688 0 3.056-1.368 3.056-3.055s-1.368-3.056-3.056-3.056c-1.687 0-3.055 1.368-3.055 3.056z"/><path d="m411.382 334.109c0 1.688 1.368 3.055 3.055 3.055 1.688 0 3.055-1.368 3.055-3.055s-1.368-3.055-3.055-3.055-3.055 1.368-3.055 3.055z"/><path d="m394.74 331.054c-1.688 0-3.055 1.368-3.055 3.055s1.368 3.055 3.055 3.055 3.055-1.368 3.055-3.055-1.367-3.055-3.055-3.055z"/><path d="m404.96 340.531c-1.687 0-3.055 1.368-3.055 3.056s1.368 3.055 3.055 3.055 3.055-1.368 3.055-3.055-1.368-3.056-3.055-3.056z"/><path d="m394.74 350.751c-1.688 0-3.055 1.368-3.055 3.055 0 1.688 1.368 3.055 3.055 3.055s3.055-1.368 3.055-3.055c.001-1.687-1.367-3.055-3.055-3.055z"/><path d="m385.262 340.531c-1.687 0-3.055 1.368-3.055 3.056s1.368 3.055 3.055 3.055 3.055-1.368 3.055-3.055-1.367-3.056-3.055-3.056z"/><path d="m371.988 353.806c0 1.688 1.368 3.055 3.055 3.055s3.055-1.368 3.055-3.055-1.368-3.055-3.055-3.055-3.055 1.368-3.055 3.055z"/><path d="m385.262 360.229c-1.687 0-3.055 1.368-3.055 3.055 0 1.688 1.368 3.055 3.055 3.055s3.055-1.368 3.055-3.055c.001-1.687-1.367-3.055-3.055-3.055z"/><path d="m365.565 346.642c1.688 0 3.055-1.368 3.055-3.055 0-1.119-.608-2.087-1.505-2.619-1.415.435-2.843.863-4.286 1.282-.199.405-.32.855-.32 1.337.001 1.688 1.369 3.055 3.056 3.055z"/><path d="m352.29 353.806c0 1.688 1.368 3.055 3.055 3.055 1.688 0 3.055-1.368 3.055-3.055s-1.368-3.055-3.055-3.055-3.055 1.368-3.055 3.055z"/><path d="m365.565 360.229c-1.687 0-3.055 1.368-3.055 3.055 0 1.688 1.368 3.055 3.055 3.055 1.688 0 3.055-1.368 3.055-3.055s-1.368-3.055-3.055-3.055z"/><path d="m358.401 373.504c0-1.687-1.368-3.055-3.055-3.055s-3.055 1.368-3.055 3.055c0 1.509 1.096 2.754 2.533 3.003.821-.214 1.637-.431 2.45-.65.682-.561 1.127-1.401 1.127-2.353z"/><path d="m335.648 350.751c-1.688 0-3.055 1.368-3.055 3.055 0 1.688 1.368 3.055 3.055 3.055s3.055-1.368 3.055-3.055c.001-1.687-1.367-3.055-3.055-3.055z"/><path d="m342.812 363.284c0 1.688 1.368 3.055 3.055 3.055s3.056-1.368 3.056-3.055-1.368-3.055-3.056-3.055c-1.687 0-3.055 1.368-3.055 3.055z"/><path d="m335.648 370.448c-1.688 0-3.055 1.368-3.055 3.055 0 1.688 1.368 3.055 3.055 3.055s3.055-1.368 3.055-3.055c.001-1.686-1.367-3.055-3.055-3.055z"/><path d="m323.115 363.284c0 1.688 1.368 3.055 3.055 3.055s3.055-1.368 3.055-3.055-1.368-3.055-3.055-3.055-3.055 1.368-3.055 3.055z"/><path d="m315.951 370.448c-1.688 0-3.055 1.368-3.055 3.055 0 1.688 1.368 3.055 3.055 3.055s3.055-1.368 3.055-3.055c0-1.686-1.368-3.055-3.055-3.055z"/><path d="m303.418 363.284c0 1.688 1.368 3.055 3.055 3.055 1.688 0 3.055-1.368 3.055-3.055s-1.368-3.055-3.055-3.055-3.055 1.368-3.055 3.055z"/><path d="m296.253 370.448c-1.687 0-3.055 1.368-3.055 3.055 0 1.688 1.368 3.055 3.055 3.055 1.688 0 3.055-1.368 3.055-3.055.001-1.686-1.367-3.055-3.055-3.055z"/><path d="m309.528 382.982c0-1.688-1.368-3.055-3.055-3.055s-3.055 1.368-3.055 3.055c0 1.161.655 2.158 1.607 2.675 1.165-.134 2.329-.27 3.486-.413.62-.56 1.017-1.361 1.017-2.262z"/><path d="m286.776 360.229c-1.687 0-3.055 1.368-3.055 3.055 0 1.688 1.368 3.055 3.055 3.055s3.055-1.368 3.055-3.055-1.368-3.055-3.055-3.055z"/><path d="m276.556 370.448c-1.687 0-3.055 1.368-3.055 3.055 0 1.688 1.368 3.055 3.055 3.055 1.688 0 3.055-1.368 3.055-3.055 0-1.686-1.367-3.055-3.055-3.055z"/><path d="m286.776 379.926c-1.687 0-3.055 1.368-3.055 3.055s1.368 3.055 3.055 3.055 3.055-1.368 3.055-3.055-1.368-3.055-3.055-3.055z"/><path d="m267.078 360.229c-1.687 0-3.055 1.368-3.055 3.055 0 1.688 1.368 3.055 3.055 3.055s3.055-1.368 3.055-3.055c.001-1.687-1.367-3.055-3.055-3.055z"/><path d="m253.803 373.504c0 1.688 1.368 3.055 3.055 3.055s3.055-1.368 3.055-3.055-1.368-3.055-3.055-3.055-3.055 1.368-3.055 3.055z"/><path d="m267.078 379.926c-1.687 0-3.055 1.368-3.055 3.055s1.368 3.055 3.055 3.055 3.055-1.368 3.055-3.055-1.367-3.055-3.055-3.055z"/><path d="m247.381 360.229c-1.687 0-3.055 1.368-3.055 3.055 0 1.688 1.368 3.055 3.055 3.055s3.055-1.368 3.055-3.055-1.368-3.055-3.055-3.055z"/><path d="m234.106 373.504c0 1.688 1.368 3.055 3.055 3.055s3.055-1.368 3.055-3.055-1.368-3.055-3.055-3.055c-1.687-.001-3.055 1.368-3.055 3.055z"/><path d="m247.381 379.926c-1.687 0-3.055 1.368-3.055 3.055s1.368 3.055 3.055 3.055 3.055-1.368 3.055-3.055-1.368-3.055-3.055-3.055z"/><path d="m227.684 360.229c-1.687 0-3.055 1.368-3.055 3.055 0 1.688 1.368 3.055 3.055 3.055s3.055-1.368 3.055-3.055-1.368-3.055-3.055-3.055z"/><path d="m217.464 370.448c-1.687 0-3.055 1.368-3.055 3.055 0 1.688 1.368 3.055 3.055 3.055s3.055-1.368 3.055-3.055c0-1.686-1.368-3.055-3.055-3.055z"/><path d="m227.684 379.926c-1.687 0-3.055 1.368-3.055 3.055s1.368 3.055 3.055 3.055 3.055-1.368 3.055-3.055-1.368-3.055-3.055-3.055z"/><path d="m204.931 363.284c0 1.688 1.368 3.055 3.055 3.055s3.055-1.368 3.055-3.055-1.368-3.055-3.055-3.055-3.055 1.368-3.055 3.055z"/><path d="m197.767 370.448c-1.687 0-3.055 1.368-3.055 3.055 0 1.688 1.368 3.055 3.055 3.055s3.055-1.368 3.055-3.055c0-1.686-1.368-3.055-3.055-3.055z"/><path d="m211.042 382.982c0-1.688-1.368-3.055-3.055-3.055s-3.055 1.368-3.055 3.055c0 1.403.952 2.573 2.241 2.932.331.036.664.07.995.105 1.6-.095 2.874-1.412 2.874-3.037z"/><path d="m178.069 350.751c-1.687 0-3.055 1.368-3.055 3.055 0 1.688 1.368 3.055 3.055 3.055s3.055-1.368 3.055-3.055c.001-1.687-1.367-3.055-3.055-3.055z"/><path d="m185.233 363.284c0 1.688 1.368 3.055 3.055 3.055s3.055-1.368 3.055-3.055-1.368-3.055-3.055-3.055-3.055 1.368-3.055 3.055z"/><path d="m178.069 370.448c-1.687 0-3.055 1.368-3.055 3.055 0 1.688 1.368 3.055 3.055 3.055s3.055-1.368 3.055-3.055c.001-1.686-1.367-3.055-3.055-3.055z"/><path d="m191.344 382.982c0-1.688-1.368-3.055-3.055-3.055-1.655 0-2.995 1.319-3.046 2.961 1.973.33 3.962.646 5.965.948.08-.273.136-.556.136-.854z"/><path d="m158.372 350.751c-1.687 0-3.055 1.368-3.055 3.055 0 1.688 1.368 3.055 3.055 3.055s3.055-1.368 3.055-3.055-1.368-3.055-3.055-3.055z"/><path d="m165.536 363.284c0 1.688 1.368 3.055 3.055 3.055s3.055-1.368 3.055-3.055-1.368-3.055-3.055-3.055-3.055 1.368-3.055 3.055z"/><path d="m158.372 370.448c-1.687 0-3.055 1.368-3.055 3.055 0 1.688 1.368 3.055 3.055 3.055s3.055-1.368 3.055-3.055c0-1.686-1.368-3.055-3.055-3.055z"/><path d="m135.619 353.806c0 1.688 1.368 3.055 3.055 3.055s3.055-1.368 3.055-3.055-1.368-3.055-3.055-3.055-3.055 1.368-3.055 3.055z"/><path d="m148.894 360.229c-1.687 0-3.055 1.368-3.055 3.055 0 1.688 1.368 3.055 3.055 3.055s3.055-1.368 3.055-3.055c.001-1.687-1.367-3.055-3.055-3.055z"/><path d="m129.197 340.531c-1.687 0-3.055 1.368-3.055 3.056s1.368 3.055 3.055 3.055 3.055-1.368 3.055-3.055-1.368-3.056-3.055-3.056z"/><path d="m118.977 350.751c-1.687 0-3.055 1.368-3.055 3.055 0 1.688 1.368 3.055 3.055 3.055s3.055-1.368 3.055-3.055c.001-1.687-1.367-3.055-3.055-3.055z"/><path d="m129.197 360.229c-1.687 0-3.055 1.368-3.055 3.055 0 1.688 1.368 3.055 3.055 3.055s3.055-1.368 3.055-3.055-1.368-3.055-3.055-3.055z"/><circle cx="99.28" cy="334.109" r="3.055"/><path d="m106.444 343.587c0 1.688 1.368 3.055 3.055 3.055s3.055-1.368 3.055-3.055-1.368-3.056-3.055-3.056-3.055 1.369-3.055 3.056z"/><path d="m76.527 314.412c0 1.688 1.368 3.055 3.055 3.055s3.055-1.368 3.055-3.055-1.368-3.055-3.055-3.055-3.055 1.367-3.055 3.055z"/><path d="m89.802 320.834c-1.687 0-3.055 1.368-3.055 3.056s1.368 3.055 3.055 3.055 3.055-1.368 3.055-3.055-1.367-3.056-3.055-3.056z"/><circle cx="79.583" cy="334.109" r="3.055"/><path d="m89.802 340.531c-1.687 0-3.055 1.368-3.055 3.056s1.368 3.055 3.055 3.055 3.055-1.368 3.055-3.055-1.367-3.056-3.055-3.056z"/><path d="m70.105 301.137c-1.687 0-3.055 1.368-3.055 3.055 0 1.688 1.368 3.056 3.055 3.056s3.055-1.368 3.055-3.056c0-1.687-1.368-3.055-3.055-3.055z"/><path d="m73.16 323.89c0-1.688-1.368-3.056-3.055-3.056s-3.055 1.368-3.055 3.056 1.368 3.055 3.055 3.055 3.055-1.368 3.055-3.055z"/></g><g><path d="m444.354 242.045c-1.687 0-3.055 1.368-3.055 3.055s1.368 3.055 3.055 3.055 3.055-1.368 3.055-3.055-1.367-3.055-3.055-3.055z"/><path d="m431.08 255.32c0 1.688 1.368 3.056 3.055 3.056s3.055-1.368 3.055-3.056c0-1.687-1.368-3.055-3.055-3.055-1.687-.001-3.055 1.368-3.055 3.055z"/><path d="m421.602 264.798c0 1.688 1.368 3.055 3.055 3.055 1.688 0 3.056-1.368 3.056-3.055s-1.368-3.055-3.056-3.055c-1.687 0-3.055 1.367-3.055 3.055z"/><path d="m414.438 271.962c-1.687 0-3.055 1.368-3.055 3.056 0 1.687 1.368 3.055 3.055 3.055 1.688 0 3.055-1.368 3.055-3.055 0-1.688-1.368-3.056-3.055-3.056z"/><path d="m394.74 271.962c-1.688 0-3.055 1.368-3.055 3.056 0 1.687 1.368 3.055 3.055 3.055s3.055-1.368 3.055-3.055c.001-1.688-1.367-3.056-3.055-3.056z"/><path d="m404.96 281.44c-1.687 0-3.055 1.368-3.055 3.055 0 1.688 1.368 3.056 3.055 3.056s3.055-1.368 3.055-3.056c0-1.687-1.368-3.055-3.055-3.055z"/><path d="m394.74 291.659c-1.688 0-3.055 1.368-3.055 3.055s1.368 3.055 3.055 3.055 3.055-1.368 3.055-3.055-1.367-3.055-3.055-3.055z"/><path d="m335.648 291.659c-1.688 0-3.055 1.368-3.055 3.055s1.368 3.055 3.055 3.055 3.055-1.368 3.055-3.055-1.367-3.055-3.055-3.055z"/><path d="m345.868 301.137c-1.687 0-3.055 1.368-3.055 3.055 0 1.688 1.368 3.056 3.055 3.056s3.056-1.368 3.056-3.056c-.001-1.687-1.369-3.055-3.056-3.055z"/><path d="m335.648 311.357c-1.688 0-3.055 1.368-3.055 3.055s1.368 3.055 3.055 3.055 3.055-1.368 3.055-3.055-1.367-3.055-3.055-3.055z"/><path d="m315.951 291.659c-1.688 0-3.055 1.368-3.055 3.055s1.368 3.055 3.055 3.055 3.055-1.368 3.055-3.055-1.368-3.055-3.055-3.055z"/><path d="m323.115 304.192c0 1.688 1.368 3.056 3.055 3.056s3.055-1.368 3.055-3.056c0-1.687-1.368-3.055-3.055-3.055s-3.055 1.368-3.055 3.055z"/><path d="m315.951 311.357c-1.688 0-3.055 1.368-3.055 3.055s1.368 3.055 3.055 3.055 3.055-1.368 3.055-3.055-1.368-3.055-3.055-3.055z"/><path d="m296.253 291.659c-1.687 0-3.055 1.368-3.055 3.055s1.368 3.055 3.055 3.055c1.688 0 3.055-1.368 3.055-3.055s-1.367-3.055-3.055-3.055z"/><path d="m303.418 304.192c0 1.688 1.368 3.056 3.055 3.056 1.688 0 3.055-1.368 3.055-3.056 0-1.687-1.368-3.055-3.055-3.055s-3.055 1.368-3.055 3.055z"/><path d="m296.253 311.357c-1.687 0-3.055 1.368-3.055 3.055s1.368 3.055 3.055 3.055c1.688 0 3.055-1.368 3.055-3.055s-1.367-3.055-3.055-3.055z"/><path d="m283.72 304.192c0 1.688 1.368 3.056 3.055 3.056s3.055-1.368 3.055-3.056c0-1.687-1.368-3.055-3.055-3.055s-3.055 1.368-3.055 3.055z"/><path d="m276.556 311.357c-1.687 0-3.055 1.368-3.055 3.055s1.368 3.055 3.055 3.055c1.688 0 3.055-1.368 3.055-3.055s-1.367-3.055-3.055-3.055z"/><path d="m264.023 304.192c0 1.688 1.368 3.056 3.055 3.056s3.055-1.368 3.055-3.056c0-1.687-1.368-3.055-3.055-3.055s-3.055 1.368-3.055 3.055z"/><path d="m256.859 311.357c-1.687 0-3.055 1.368-3.055 3.055s1.368 3.055 3.055 3.055 3.055-1.368 3.055-3.055-1.368-3.055-3.055-3.055z"/><path d="m244.326 304.192c0 1.688 1.368 3.056 3.055 3.056s3.055-1.368 3.055-3.056c0-1.687-1.368-3.055-3.055-3.055s-3.055 1.368-3.055 3.055z"/><path d="m237.161 311.357c-1.688 0-3.055 1.368-3.055 3.055s1.368 3.055 3.055 3.055 3.055-1.368 3.055-3.055-1.367-3.055-3.055-3.055z"/><path d="m214.409 294.715c0 1.688 1.368 3.055 3.055 3.055s3.055-1.368 3.055-3.055c0-1.201-.699-2.229-1.706-2.729-.741-.061-1.483-.121-2.221-.185-1.26.377-2.183 1.531-2.183 2.914z"/><path d="m224.628 304.192c0 1.688 1.368 3.056 3.055 3.056s3.055-1.368 3.055-3.056c0-1.687-1.368-3.055-3.055-3.055s-3.055 1.368-3.055 3.055z"/><path d="m217.464 311.357c-1.687 0-3.055 1.368-3.055 3.055s1.368 3.055 3.055 3.055 3.055-1.368 3.055-3.055-1.368-3.055-3.055-3.055z"/><path d="m197.767 291.659c-1.687 0-3.055 1.368-3.055 3.055s1.368 3.055 3.055 3.055 3.055-1.368 3.055-3.055-1.368-3.055-3.055-3.055z"/><path d="m204.931 304.192c0 1.688 1.368 3.056 3.055 3.056s3.055-1.368 3.055-3.056c0-1.687-1.368-3.055-3.055-3.055s-3.055 1.368-3.055 3.055z"/><path d="m197.767 311.357c-1.687 0-3.055 1.368-3.055 3.055s1.368 3.055 3.055 3.055 3.055-1.368 3.055-3.055-1.368-3.055-3.055-3.055z"/><path d="m178.069 291.659c-1.687 0-3.055 1.368-3.055 3.055s1.368 3.055 3.055 3.055 3.055-1.368 3.055-3.055-1.367-3.055-3.055-3.055z"/><path d="m185.233 304.192c0 1.688 1.368 3.056 3.055 3.056s3.055-1.368 3.055-3.056c0-1.687-1.368-3.055-3.055-3.055s-3.055 1.368-3.055 3.055z"/><path d="m178.069 311.357c-1.687 0-3.055 1.368-3.055 3.055s1.368 3.055 3.055 3.055 3.055-1.368 3.055-3.055-1.367-3.055-3.055-3.055z"/><path d="m155.317 294.715c0 1.688 1.368 3.055 3.055 3.055s3.055-1.368 3.055-3.055-1.368-3.055-3.055-3.055c-1.687-.001-3.055 1.367-3.055 3.055z"/><path d="m168.592 301.137c-1.687 0-3.055 1.368-3.055 3.055 0 1.688 1.368 3.056 3.055 3.056s3.055-1.368 3.055-3.056c0-1.687-1.368-3.055-3.055-3.055z"/><path d="m148.894 281.44c-1.687 0-3.055 1.368-3.055 3.055 0 1.688 1.368 3.056 3.055 3.056s3.055-1.368 3.055-3.056c.001-1.687-1.367-3.055-3.055-3.055z"/><path d="m135.619 294.715c0 1.688 1.368 3.055 3.055 3.055s3.055-1.368 3.055-3.055-1.368-3.055-3.055-3.055c-1.687-.001-3.055 1.367-3.055 3.055z"/><path d="m148.894 301.137c-1.687 0-3.055 1.368-3.055 3.055 0 1.688 1.368 3.056 3.055 3.056s3.055-1.368 3.055-3.056c.001-1.687-1.367-3.055-3.055-3.055z"/><path d="m118.977 271.962c-1.687 0-3.055 1.368-3.055 3.056 0 1.687 1.368 3.055 3.055 3.055s3.055-1.368 3.055-3.055c.001-1.688-1.367-3.056-3.055-3.056z"/><path d="m126.142 284.495c0 1.688 1.368 3.056 3.055 3.056s3.055-1.368 3.055-3.056c0-1.687-1.368-3.055-3.055-3.055-1.688 0-3.055 1.368-3.055 3.055z"/><path d="m118.977 291.659c-1.687 0-3.055 1.368-3.055 3.055s1.368 3.055 3.055 3.055 3.055-1.368 3.055-3.055-1.367-3.055-3.055-3.055z"/><path d="m96.225 275.017c0 1.687 1.368 3.055 3.055 3.055s3.055-1.368 3.055-3.055c0-1.688-1.368-3.056-3.055-3.056s-3.055 1.369-3.055 3.056z"/><path d="m109.499 281.44c-1.687 0-3.055 1.368-3.055 3.055 0 1.688 1.368 3.056 3.055 3.056s3.055-1.368 3.055-3.056c.001-1.687-1.367-3.055-3.055-3.055z"/><path d="m79.583 258.375c1.687 0 3.055-1.368 3.055-3.056 0-1.687-1.368-3.055-3.055-3.055s-3.055 1.368-3.055 3.055c-.001 1.688 1.367 3.056 3.055 3.056z"/><path d="m86.747 264.798c0 1.688 1.368 3.055 3.055 3.055s3.055-1.368 3.055-3.055-1.368-3.055-3.055-3.055-3.055 1.367-3.055 3.055z"/><path d="m70.105 242.045c-1.687 0-3.055 1.368-3.055 3.055s1.368 3.055 3.055 3.055 3.055-1.368 3.055-3.055-1.368-3.055-3.055-3.055z"/></g><g><path d="m444.354 163.256c-1.687 0-3.055 1.368-3.055 3.055 0 1.688 1.368 3.056 3.055 3.056s3.055-1.368 3.055-3.056c.001-1.687-1.367-3.055-3.055-3.055z"/><path d="m434.135 173.475c-1.687 0-3.055 1.368-3.055 3.055s1.368 3.055 3.055 3.055 3.055-1.368 3.055-3.055-1.368-3.055-3.055-3.055z"/><path d="m434.135 193.173c-1.687 0-3.055 1.368-3.055 3.055s1.368 3.055 3.055 3.055 3.055-1.368 3.055-3.055-1.368-3.055-3.055-3.055z"/><path d="m424.657 182.953c-1.687 0-3.055 1.368-3.055 3.055 0 1.688 1.368 3.056 3.055 3.056 1.688 0 3.056-1.368 3.056-3.056-.001-1.687-1.369-3.055-3.056-3.055z"/><path d="m411.382 196.228c0 1.688 1.368 3.055 3.055 3.055 1.688 0 3.055-1.368 3.055-3.055s-1.368-3.055-3.055-3.055-3.055 1.367-3.055 3.055z"/><path d="m424.657 202.651c-1.687 0-3.055 1.367-3.055 3.055s1.368 3.055 3.055 3.055c1.688 0 3.056-1.368 3.056-3.055s-1.369-3.055-3.056-3.055z"/><path d="m414.438 212.87c-1.687 0-3.055 1.368-3.055 3.055 0 1.603 1.24 2.904 2.81 3.031 1.056-.653 2.088-1.313 3.103-1.979.121-.329.197-.68.197-1.051 0-1.688-1.368-3.056-3.055-3.056z"/><path d="m401.904 205.706c0 1.688 1.368 3.055 3.055 3.055s3.055-1.368 3.055-3.055-1.368-3.055-3.055-3.055-3.055 1.367-3.055 3.055z"/><path d="m394.74 212.87c-1.688 0-3.055 1.368-3.055 3.055s1.368 3.055 3.055 3.055 3.055-1.368 3.055-3.055-1.367-3.055-3.055-3.055z"/><path d="m335.648 232.567c-1.688 0-3.055 1.367-3.055 3.055s1.368 3.056 3.055 3.056 3.055-1.368 3.055-3.056-1.367-3.055-3.055-3.055z"/><path d="m326.17 242.045c-1.688 0-3.055 1.368-3.055 3.055s1.368 3.055 3.055 3.055 3.055-1.368 3.055-3.055-1.367-3.055-3.055-3.055z"/><path d="m286.776 222.348c-1.687 0-3.055 1.368-3.055 3.055s1.368 3.055 3.055 3.055 3.055-1.368 3.055-3.055-1.368-3.055-3.055-3.055z"/><path d="m273.501 235.622c0 1.688 1.368 3.056 3.055 3.056 1.688 0 3.055-1.368 3.055-3.056s-1.368-3.055-3.055-3.055-3.055 1.368-3.055 3.055z"/><path d="m286.776 242.045c-1.687 0-3.055 1.368-3.055 3.055s1.368 3.055 3.055 3.055 3.055-1.368 3.055-3.055-1.368-3.055-3.055-3.055z"/><path d="m264.023 225.403c0 1.688 1.368 3.055 3.055 3.055s3.055-1.368 3.055-3.055c0-1.199-.697-2.227-1.703-2.727-.943.028-1.89.049-2.836.071-.933.523-1.571 1.51-1.571 2.656z"/><path d="m253.803 235.622c0 1.688 1.368 3.056 3.055 3.056s3.055-1.368 3.055-3.056-1.368-3.055-3.055-3.055-3.055 1.368-3.055 3.055z"/><path d="m267.078 242.045c-1.687 0-3.055 1.368-3.055 3.055s1.368 3.055 3.055 3.055 3.055-1.368 3.055-3.055-1.367-3.055-3.055-3.055z"/><path d="m244.326 225.403c0 1.688 1.368 3.055 3.055 3.055s3.055-1.368 3.055-3.055c0-1.082-.566-2.027-1.414-2.57-1.065-.014-2.131-.028-3.192-.049-.897.532-1.504 1.5-1.504 2.619z"/><path d="m234.106 235.622c0 1.688 1.368 3.056 3.055 3.056s3.055-1.368 3.055-3.056-1.368-3.055-3.055-3.055-3.055 1.368-3.055 3.055z"/><path d="m247.381 242.045c-1.687 0-3.055 1.368-3.055 3.055s1.368 3.055 3.055 3.055 3.055-1.368 3.055-3.055-1.368-3.055-3.055-3.055z"/><path d="m227.684 222.348c-1.687 0-3.055 1.368-3.055 3.055s1.368 3.055 3.055 3.055 3.055-1.368 3.055-3.055-1.368-3.055-3.055-3.055z"/><path d="m214.409 235.622c0 1.688 1.368 3.056 3.055 3.056s3.055-1.368 3.055-3.056-1.368-3.055-3.055-3.055-3.055 1.368-3.055 3.055z"/><path d="m227.684 242.045c-1.687 0-3.055 1.368-3.055 3.055s1.368 3.055 3.055 3.055 3.055-1.368 3.055-3.055-1.368-3.055-3.055-3.055z"/><path d="m207.986 222.348c-1.687 0-3.055 1.368-3.055 3.055s1.368 3.055 3.055 3.055 3.055-1.368 3.055-3.055-1.367-3.055-3.055-3.055z"/><path d="m194.712 235.622c0 1.688 1.368 3.056 3.055 3.056s3.055-1.368 3.055-3.056-1.368-3.055-3.055-3.055c-1.688 0-3.055 1.368-3.055 3.055z"/><path d="m207.986 242.045c-1.687 0-3.055 1.368-3.055 3.055s1.368 3.055 3.055 3.055 3.055-1.368 3.055-3.055-1.367-3.055-3.055-3.055z"/><path d="m188.289 222.348c-1.687 0-3.055 1.368-3.055 3.055s1.368 3.055 3.055 3.055 3.055-1.368 3.055-3.055-1.368-3.055-3.055-3.055z"/><path d="m178.069 232.567c-1.687 0-3.055 1.367-3.055 3.055s1.368 3.056 3.055 3.056 3.055-1.368 3.055-3.056-1.367-3.055-3.055-3.055z"/><path d="m188.289 242.045c-1.687 0-3.055 1.368-3.055 3.055s1.368 3.055 3.055 3.055 3.055-1.368 3.055-3.055-1.368-3.055-3.055-3.055z"/><path d="m158.372 212.87c-1.687 0-3.055 1.368-3.055 3.055s1.368 3.055 3.055 3.055 3.055-1.368 3.055-3.055-1.368-3.055-3.055-3.055z"/><path d="m165.536 225.403c0 1.688 1.368 3.055 3.055 3.055s3.055-1.368 3.055-3.055-1.368-3.055-3.055-3.055-3.055 1.368-3.055 3.055z"/><path d="m158.372 232.567c-1.687 0-3.055 1.367-3.055 3.055s1.368 3.056 3.055 3.056 3.055-1.368 3.055-3.056-1.368-3.055-3.055-3.055z"/><path d="m171.647 245.1c0-1.688-1.368-3.055-3.055-3.055s-3.055 1.368-3.055 3.055c0 .133.023.26.039.389 1.852.418 3.72.823 5.606 1.215.29-.467.465-1.013.465-1.604z"/><path d="m135.619 215.925c0 1.688 1.368 3.055 3.055 3.055s3.055-1.368 3.055-3.055-1.368-3.055-3.055-3.055-3.055 1.368-3.055 3.055z"/><path d="m145.839 225.403c0 1.688 1.368 3.055 3.055 3.055s3.055-1.368 3.055-3.055-1.368-3.055-3.055-3.055-3.055 1.368-3.055 3.055z"/><path d="m141.73 235.622c0-1.688-1.368-3.055-3.055-3.055-1.688 0-3.055 1.367-3.055 3.055 0 .628.19 1.21.515 1.695 1.178.396 2.367.786 3.567 1.171 1.179-.423 2.028-1.54 2.028-2.866z"/><path d="m126.142 205.706c0 1.688 1.368 3.055 3.055 3.055s3.055-1.368 3.055-3.055c0-.805-.318-1.532-.826-2.078-.868-.311-1.729-.625-2.585-.942-1.518.178-2.699 1.454-2.699 3.02z"/><path d="m115.922 215.925c0 1.688 1.368 3.055 3.055 3.055s3.055-1.368 3.055-3.055-1.368-3.055-3.055-3.055-3.055 1.368-3.055 3.055z"/><path d="m129.197 222.348c-1.687 0-3.055 1.368-3.055 3.055s1.368 3.055 3.055 3.055 3.055-1.368 3.055-3.055-1.368-3.055-3.055-3.055z"/><path d="m99.28 193.173c-1.687 0-3.055 1.368-3.055 3.055s1.368 3.055 3.055 3.055 3.055-1.368 3.055-3.055-1.368-3.055-3.055-3.055z"/><path d="m106.444 205.706c0 1.688 1.368 3.055 3.055 3.055s3.055-1.368 3.055-3.055-1.368-3.055-3.055-3.055-3.055 1.367-3.055 3.055z"/><path d="m99.28 212.87c-1.687 0-3.055 1.368-3.055 3.055s1.368 3.055 3.055 3.055 3.055-1.368 3.055-3.055-1.368-3.055-3.055-3.055z"/><path d="m86.747 186.008c0 1.688 1.368 3.056 3.055 3.056s3.055-1.368 3.055-3.056c0-.383-.079-.746-.208-1.085-.988-.649-1.961-1.303-2.909-1.964-1.658.034-2.993 1.383-2.993 3.049z"/><path d="m79.583 199.283c1.687 0 3.055-1.368 3.055-3.055s-1.368-3.055-3.055-3.055-3.055 1.368-3.055 3.055 1.367 3.055 3.055 3.055z"/><path d="m89.802 202.651c-1.687 0-3.055 1.367-3.055 3.055s1.368 3.055 3.055 3.055 3.055-1.368 3.055-3.055-1.367-3.055-3.055-3.055z"/><path d="m70.105 182.953c-1.687 0-3.055 1.368-3.055 3.055 0 1.688 1.368 3.056 3.055 3.056s3.055-1.368 3.055-3.056c0-1.687-1.368-3.055-3.055-3.055z"/></g></g><path d="m403.824 130.657c-7.647-5.106-14.815-16.751-27.573-20.566-9.761-2.919-22.585 2.287-34.755.403-10.471-1.621-20.91-10.642-32.816-11.332-14.021-.813-27.958 7-41.343 7.614-14.434.663-29.103-5.719-41.895-3.61-15.052 2.481-26.651 13.475-38.018 17.626-16.882 6.165-33.71 8.466-38.281 17.325-5.108 9.901 5.501 18.136 17.989 26.475 7.647 5.107 14.815 16.752 27.573 20.566 9.761 2.919 22.585-2.288 34.755-.403 10.471 1.622 20.91 10.642 32.816 11.332 11.544.669 23.031-4.501 34.2-6.694v45.926c0 7.514 6.092 13.606 13.606 13.606h1.338c7.514 0 13.606-6.092 13.606-13.606v-44.526c7.126 1.26 14.045 2.353 20.488 1.291.253-.042.498-.105.749-.152v101.034c0 10.382 8.416 18.798 18.798 18.798h1.848c10.382 0 18.798-8.416 18.798-18.798v-119.28c16.131-5.6 31.732-8.074 36.106-16.552 5.108-9.902-5.501-18.137-17.989-26.477z" fill="#eaa895"/><path d="m505.075 306.137c-8.222-18.635-27.046-35.994-54.235-50.429 1.767-4.833 2.682-9.776 2.682-14.794 0-5.925-1.293-11.86-3.842-17.64 0-.001 0-.001-.001-.002-2.678-6.069-6.806-11.958-12.21-17.583 10.52-10.957 16.053-22.923 16.053-35.347 0-5.925-1.293-11.859-3.842-17.641 0-.001 0-.001-.001-.002-8.847-20.053-33.25-38.19-68.714-51.07-35.292-12.817-80.039-19.876-125.997-19.876-6.361 0-12.694.149-18.987.416-3.879-1.92-8.233-3.02-12.846-3.02-6.201 0-11.951 1.955-16.678 5.274-6.124.68-12.175 1.475-18.116 2.407-4.265-10.786-14.788-18.44-27.072-18.44-16.048 0-29.105 13.057-29.105 29.105 0 1.003.069 1.99.168 2.967-1.121.389-2.259.767-3.362 1.168-35.464 12.88-59.868 31.018-68.714 51.07-2.55 5.781-3.844 11.717-3.844 17.643 0 12.419 5.529 24.381 16.041 35.335-5.407 5.628-9.518 11.523-12.197 17.595-2.55 5.78-3.844 11.716-3.844 17.642 0 5.02.915 9.965 2.684 14.799-27.186 14.435-46.016 31.79-54.236 50.424-3.225 7.309-4.86 14.807-4.86 22.289 0 30.837 26.959 59.541 75.912 80.825 47.893 20.824 111.483 32.292 179.056 32.292 67.572 0 131.162-11.468 179.055-32.292 48.952-21.284 75.912-49.988 75.912-80.825-.001-7.482-1.636-14.982-4.86-22.29zm-60.939-70.013c.178-.249.353-.499.526-.749.104-.149.213-.298.314-.448.363 1.997.546 3.996.546 5.987 0 20.903-19.383 40.842-54.579 56.145-.58.252-1.173.497-1.759.745.339-1.561.522-3.179.522-4.84v-18.772c25.177-10.31 43.915-23.418 54.319-37.917.037-.05.074-.1.111-.151zm-2.782 66.61c.635-.771 1.25-1.547 1.837-2.328.03-.039.057-.079.087-.118.515-.689 1.008-1.381 1.485-2.076.069-.1.147-.199.215-.3.363 1.996.546 3.996.546 5.987 0 20.903-19.383 40.842-54.579 56.145-36.254 15.763-84.545 24.444-135.976 24.444s-99.722-8.681-135.976-24.444c-35.196-15.303-54.579-35.242-54.579-56.145 0-1.992.183-3.991.546-5.988.094.138.195.275.291.413.206.299.416.596.629.893.182.254.366.506.553.759.267.361.538.721.815 1.081.06.077.115.155.175.232 0-.002.001-.005.001-.007 11.915 15.313 33.19 28.975 61.548 39.274 35.292 12.817 80.039 19.876 125.997 19.876s90.705-7.059 125.997-19.876c27.403-9.952 48.193-23.045 60.314-37.734 0 .003 0 .005-.001.007.025-.03.048-.063.075-.095zm.138-14.643c-.031.063-.066.126-.098.189-.287.564-.586 1.128-.9 1.689-9.294 16.598-31.17 31.778-62.26 43.069-34.439 12.508-78.216 19.396-123.266 19.396-45.051 0-88.828-6.888-123.266-19.396-31.702-11.513-53.823-27.07-62.793-44.048 0 0 0 0 .001-.001-.198-.375-.388-.75-.575-1.126 1.591-3.229 3.688-6.403 6.207-9.515 9.939 9.644 23.806 18.46 41.26 26.049 37.239 16.191 86.662 25.107 139.166 25.107 38.721 0 75.759-4.855 107.478-13.896.859.099 1.731.155 2.616.155h1.848c6.44 0 12.26-2.688 16.41-6.996 3.707-1.392 7.315-2.849 10.815-4.371 17.465-7.593 31.338-16.416 41.278-26.066 2.522 3.117 4.596 6.299 6.189 9.532-.039.076-.072.153-.11.229zm.106-63.219c-.06.122-.113.245-.174.366s-.126.242-.188.363c-.298.576-.608 1.149-.935 1.722-8.189 14.344-25.78 27.613-50.594 38.208v-29.851c1.493-.608 2.973-1.224 4.427-1.856 15.39-6.691 27.996-14.336 37.576-22.662 4.246 4.431 7.574 9.018 9.888 13.71zm3.378-60.516c.363 1.997.546 3.996.546 5.987 0 20.903-19.383 40.842-54.579 56.145-.406.177-.827.345-1.237.519v-23.392c25.852-10.588 44.923-24.122 55.145-39.086.04-.058.086-.115.125-.173zm-3.372-10.045c-.01.019-.018.04-.028.059v.002c-7.539 15.251-25.694 29.4-51.87 40.578v-18.394c2.882-.948 5.739-1.814 8.522-2.658 12.362-3.746 23.037-6.983 27.138-14.932 7.189-13.933-8.765-24.586-19.322-31.636-2.321-1.55-4.788-3.977-7.4-6.546-1.953-1.921-4.083-4.013-6.455-6.031 24.875 11.017 42.131 24.772 49.415 39.558zm-186.637-64.557c40.108 0 79.189 5.472 111.587 15.496-2.652.139-5.371.459-8.155.79-5.434.645-11.055 1.311-16.291.501-4.147-.642-8.536-2.723-13.184-4.927-6.243-2.96-12.698-6.021-20.013-6.445-8.401-.487-16.506 1.8-24.346 4.011-6.101 1.721-11.864 3.346-17.412 3.6-5.14.235-10.485-.52-15.747-1.422-1.046-4.286-3.059-8.188-5.769-11.499 3.103-.065 6.212-.105 9.33-.105zm-64.594 7.742c0-.966-.05-1.921-.142-2.863 2.591-.402 5.201-.78 7.831-1.133-2.558 4.33-4.033 9.372-4.033 14.755 0 1.601.135 3.171.385 4.702-1.57.895-3.109 1.726-4.619 2.46-1.237-.901-2.539-1.719-3.912-2.42 2.84-4.492 4.49-9.806 4.49-15.501zm11.435 41.437c0-6.621-2.236-12.72-5.974-17.613.341-.182.682-.373 1.024-.562 4.686 9.808 14.702 16.602 26.277 16.602 15.596 0 28.364-12.332 29.071-27.757 5.007.808 10.121 1.409 15.316 1.169 6.467-.296 12.949-2.125 19.217-3.892 7.537-2.125 14.66-4.133 21.712-3.724 5.758.334 11.497 3.055 17.048 5.688 4.961 2.352 10.089 4.784 15.388 5.604 6.315.977 12.489.245 18.458-.463 5.878-.698 11.43-1.356 15.763-.061 7.41 2.215 12.758 7.476 17.929 12.564 2.89 2.842 5.618 5.527 8.568 7.497 13.025 8.698 19.926 14.974 16.655 21.315-2.55 4.942-11.725 7.723-22.349 10.944-3.723 1.128-7.572 2.295-11.514 3.663-1.609.559-2.688 2.075-2.688 3.779v119.28c0 8.16-6.638 14.798-14.798 14.798h-1.848c-8.16 0-14.798-6.638-14.798-14.798v-101.034c0-1.188-.528-2.314-1.441-3.074-.725-.603-1.631-.926-2.559-.926-.241 0-.484.022-.726.066-.151.028-.301.06-.45.092-.076.016-.151.034-.225.046-5.693.938-12.036-.026-19.141-1.283-1.165-.207-2.361.113-3.267.874-.906.76-1.43 1.882-1.43 3.065v44.526c0 5.297-4.309 9.606-9.605 9.606h-1.338c-5.297 0-9.606-4.309-9.606-9.606v-45.926c0-1.196-.535-2.329-1.458-3.089-.924-.76-2.139-1.067-3.312-.836-3.847.755-7.724 1.848-11.474 2.904-7.54 2.125-14.665 4.131-21.724 3.722-5.759-.334-11.499-3.056-17.05-5.688-4.959-2.352-10.088-4.784-15.386-5.605-6.317-.977-12.49-.245-18.458.463-5.876.696-11.43 1.356-15.763.061-7.409-2.215-12.757-7.476-17.929-12.564-.351-.345-.699-.688-1.046-1.027 14.076-2.029 24.931-14.168 24.931-28.8zm139.131 71.126c-.519.113-1.045.219-1.566.329-3.404.719-6.856 1.393-10.348 2.024v-16.89c4.603.716 8.965 1.164 13.238.931v13.311c-.443.098-.88.199-1.324.295zm1.324 7.888v23.936c-5.284 1.17-10.686 2.232-16.194 3.182 1.864-2.793 2.956-6.144 2.956-9.747v-14.77c2.148-.381 4.284-.776 6.4-1.191.748-.146 1.488-.298 2.231-.447 1.544-.313 3.08-.633 4.607-.963zm-210.562-108.797c.835-.303 1.701-.587 2.547-.884 2.631 6.569 7.577 11.971 13.839 15.166-2.839 4.492-4.49 9.806-4.49 15.501 0 1.19.08 2.361.22 3.515-.218 3.655 1.062 7.045 3.202 10.16 3.253 6.086 8.607 10.882 15.086 13.425.962.654 1.904 1.284 2.805 1.886 2.321 1.55 4.789 3.977 7.4 6.547 5.318 5.231 11.936 11.741 21.247 14.525 5.923 1.771 12.274 1.017 18.998.218 5.435-.646 11.055-1.312 16.291-.502 4.146.643 8.536 2.724 13.182 4.927 6.244 2.961 12.699 6.021 20.015 6.445 8.398.484 16.512-1.798 24.356-4.008 2.079-.585 4.093-1.153 6.075-1.661v22.835c-12.283 1.068-24.839 1.631-37.508 1.631-45.051 0-88.828-6.888-123.266-19.396-31.305-11.37-53.273-26.68-62.456-43.412.003-.009.007-.019.009-.028-.319-.582-.621-1.166-.912-1.751 8.587-17.403 30.981-33.38 63.36-45.139zm-67.289 61.193c0-1.992.183-3.991.546-5.988.096.142.2.282.298.423.199.288.401.575.607.862.093.129.18.26.274.39.001-.003.002-.006.002-.01 11.634 16.004 33.424 30.3 62.831 40.98 35.292 12.817 80.039 19.876 125.997 19.876 12.656 0 25.211-.551 37.508-1.599v10.041c0 5.39 2.44 10.216 6.267 13.448-14.184 1.425-28.844 2.166-43.776 2.166-51.431 0-99.722-8.681-135.976-24.444-35.195-15.303-54.578-35.242-54.578-56.145zm13.808 40.816c9.581 8.327 22.188 15.973 37.581 22.665 37.239 16.191 86.662 25.108 139.166 25.108 30.772 0 60.473-3.075 87.295-8.871v30.286c-26.845 5.929-56.773 9.101-87.295 9.101-45.051 0-88.828-6.888-123.266-19.396-31.379-11.396-53.38-26.752-62.524-43.53.004-.009.006-.018.01-.026-.295-.539-.581-1.079-.853-1.62 2.314-4.695 5.637-9.285 9.886-13.717zm-13.262 23.768c.068.1.144.198.213.297 11.368 16.557 33.558 31.365 63.799 42.348 35.292 12.817 80.039 19.876 125.997 19.876 30.434 0 60.318-3.113 87.295-8.926v4.443c0 7.051 3.219 13.364 8.263 17.549-28.746 7.167-61.458 10.99-95.558 10.99-51.431 0-99.722-8.681-135.976-24.444-35.196-15.303-54.579-35.242-54.579-56.145 0-1.992.183-3.991.546-5.988zm365.875 166.988c-46.91 20.396-109.366 31.628-175.865 31.628s-128.956-11.232-175.866-31.628c-45.851-19.935-71.102-46.033-71.102-73.488 0-6.362 1.406-12.775 4.179-19.06 7.478-16.95 24.913-32.908 50.253-46.397 1.807 3.228 4.024 6.393 6.617 9.489-3.751 4.465-6.711 9.078-8.794 13.799-2.55 5.78-3.844 11.716-3.844 17.642 0 24.286 21.091 46.831 59.389 63.481 37.239 16.191 86.662 25.107 139.166 25.107s101.927-8.917 139.166-25.107c38.297-16.651 59.389-39.196 59.389-63.481 0-5.925-1.293-11.86-3.842-17.64 0-.001 0-.002-.001-.003-2.083-4.722-5.039-9.336-8.791-13.802 2.592-3.095 4.809-6.259 6.616-9.487 25.341 13.489 42.775 29.448 50.253 46.399 2.772 6.284 4.178 12.697 4.178 19.06 0 27.455-25.251 53.553-71.101 73.488z" fill="#31373d"/></g></svg>