<svg id="Capa_1" enable-background="new 0 0 511.722 511.722" height="512" viewBox="0 0 511.722 511.722" width="512" xmlns="http://www.w3.org/2000/svg"><g><path d="m232.068 272.248 213.617-14.56c.833 12.221.616 24.49-.649 36.674-12.131 116.83-118.251 202.985-235.081 190.854-116.832-12.132-202.986-118.251-190.855-235.082 12.132-116.83 118.251-202.984 235.081-190.853 11.976 1.244 23.826 3.495 35.424 6.731z" fill="#eaa895"/><path d="m397.858 260.616c.646 9.763.478 19.566-.504 29.299-9.415 93.337-91.776 162.168-182.449 152.476-90.674-9.692-157.539-94.472-148.124-187.81s91.776-162.168 182.449-152.476c9.295.993 18.492 2.792 27.493 5.377l-45.938 165.675z" fill="#e9c278"/><g fill="#f9fbfc"><path d="m441.458 257.976c-.061.241-.103.488-.103.748 0 1.694 1.374 3.068 3.068 3.068.537 0 1.034-.15 1.474-.393-.063-1.237-.129-2.475-.213-3.711z"/><path d="m434.162 265.918c-1.694 0-3.068 1.374-3.068 3.068s1.374 3.068 3.068 3.068 3.068-1.374 3.068-3.068-1.374-3.068-3.068-3.068z"/><path d="m444.424 275.435c-1.694 0-3.068 1.373-3.068 3.068s1.374 3.068 3.068 3.068c.575 0 1.107-.168 1.567-.444.071-1.72.126-3.44.156-5.162-.491-.334-1.084-.53-1.723-.53z"/><path d="m434.162 285.697c-1.694 0-3.068 1.374-3.068 3.068s1.374 3.068 3.068 3.068 3.068-1.374 3.068-3.068-1.374-3.068-3.068-3.068z"/><path d="m444.424 295.214c-1.694 0-3.068 1.374-3.068 3.068 0 1.612 1.247 2.918 2.826 3.044.276-2.011.528-4.03.747-6.06-.165-.029-.332-.052-.505-.052z"/><path d="m434.162 305.475c-1.694 0-3.068 1.373-3.068 3.068 0 1.694 1.374 3.068 3.068 3.068s3.068-1.374 3.068-3.068-1.374-3.068-3.068-3.068z"/><path d="m434.162 325.254c-1.694 0-3.068 1.374-3.068 3.068s1.374 3.068 3.068 3.068 3.068-1.374 3.068-3.068-1.374-3.068-3.068-3.068z"/><path d="m431.094 348.101c0 .602.18 1.16.48 1.634.593-1.514 1.171-3.035 1.73-4.565-1.274.373-2.21 1.536-2.21 2.931z"/><path d="m424.645 261.792c1.629 0 2.949-1.273 3.049-2.878l-6.056.413c.28 1.406 1.519 2.465 3.007 2.465z"/><path d="m414.383 265.918c-1.694 0-3.068 1.374-3.068 3.068s1.374 3.068 3.068 3.068 3.068-1.374 3.068-3.068-1.373-3.068-3.068-3.068z"/><path d="m424.645 275.435c-1.694 0-3.068 1.373-3.068 3.068s1.374 3.068 3.068 3.068 3.068-1.374 3.068-3.068-1.374-3.068-3.068-3.068z"/><path d="m414.383 285.697c-1.694 0-3.068 1.374-3.068 3.068s1.374 3.068 3.068 3.068 3.068-1.374 3.068-3.068-1.373-3.068-3.068-3.068z"/><path d="m424.645 295.214c-1.694 0-3.068 1.374-3.068 3.068s1.374 3.068 3.068 3.068 3.068-1.374 3.068-3.068-1.374-3.068-3.068-3.068z"/><path d="m414.383 305.475c-1.694 0-3.068 1.373-3.068 3.068 0 1.694 1.374 3.068 3.068 3.068s3.068-1.374 3.068-3.068-1.373-3.068-3.068-3.068z"/><path d="m424.645 314.992c-1.694 0-3.068 1.373-3.068 3.068s1.374 3.068 3.068 3.068 3.068-1.374 3.068-3.068-1.374-3.068-3.068-3.068z"/><path d="m414.383 325.254c-1.694 0-3.068 1.374-3.068 3.068s1.374 3.068 3.068 3.068 3.068-1.374 3.068-3.068-1.373-3.068-3.068-3.068z"/><path d="m424.645 334.771c-1.694 0-3.068 1.373-3.068 3.068 0 1.694 1.374 3.068 3.068 3.068s3.068-1.374 3.068-3.068-1.374-3.068-3.068-3.068z"/><path d="m414.383 345.033c-1.694 0-3.068 1.374-3.068 3.068s1.374 3.068 3.068 3.068 3.068-1.374 3.068-3.068-1.373-3.068-3.068-3.068z"/><path d="m424.645 354.55c-1.694 0-3.068 1.374-3.068 3.068s1.374 3.068 3.068 3.068 3.068-1.373 3.068-3.068-1.374-3.068-3.068-3.068z"/><path d="m414.383 364.812c-1.694 0-3.068 1.374-3.068 3.068s1.374 3.068 3.068 3.068 3.068-1.374 3.068-3.068c0-1.695-1.373-3.068-3.068-3.068z"/><path d="m411.315 387.658c0 .344.07.669.174.979.868-1.326 1.719-2.666 2.559-4.013-1.534.169-2.733 1.455-2.733 3.034z"/><path d="m404.866 261.792c1.119 0 2.088-.605 2.624-1.5l-5.009.341c.563.701 1.417 1.159 2.385 1.159z"/><path d="m397.673 268.986c0-.586-.173-1.127-.457-1.593-.4 1.448-.814 2.891-1.243 4.326 1.003-.504 1.7-1.532 1.7-2.733z"/><path d="m404.866 275.435c-1.694 0-3.068 1.373-3.068 3.068s1.374 3.068 3.068 3.068 3.068-1.374 3.068-3.068-1.373-3.068-3.068-3.068z"/><path d="m394.605 285.697c-1.694 0-3.068 1.374-3.068 3.068s1.374 3.068 3.068 3.068 3.068-1.374 3.068-3.068-1.374-3.068-3.068-3.068z"/><path d="m404.866 295.214c-1.694 0-3.068 1.374-3.068 3.068s1.374 3.068 3.068 3.068 3.068-1.374 3.068-3.068-1.373-3.068-3.068-3.068z"/><path d="m394.605 305.475c-1.694 0-3.068 1.373-3.068 3.068 0 1.694 1.374 3.068 3.068 3.068s3.068-1.374 3.068-3.068-1.374-3.068-3.068-3.068z"/><path d="m404.866 314.992c-1.694 0-3.068 1.373-3.068 3.068s1.374 3.068 3.068 3.068 3.068-1.374 3.068-3.068-1.373-3.068-3.068-3.068z"/><path d="m394.605 325.254c-1.694 0-3.068 1.374-3.068 3.068s1.374 3.068 3.068 3.068 3.068-1.374 3.068-3.068-1.374-3.068-3.068-3.068z"/><circle cx="404.866" cy="337.839" r="3.068"/><path d="m394.605 345.033c-1.694 0-3.068 1.374-3.068 3.068s1.374 3.068 3.068 3.068 3.068-1.374 3.068-3.068-1.374-3.068-3.068-3.068z"/><path d="m404.866 354.55c-1.694 0-3.068 1.374-3.068 3.068s1.374 3.068 3.068 3.068 3.068-1.373 3.068-3.068-1.373-3.068-3.068-3.068z"/><path d="m394.605 364.812c-1.694 0-3.068 1.374-3.068 3.068s1.374 3.068 3.068 3.068 3.068-1.374 3.068-3.068c0-1.695-1.374-3.068-3.068-3.068z"/><path d="m404.866 374.329c-1.694 0-3.068 1.374-3.068 3.068 0 1.695 1.374 3.068 3.068 3.068s3.068-1.373 3.068-3.068-1.373-3.068-3.068-3.068z"/><path d="m394.605 384.59c-1.694 0-3.068 1.374-3.068 3.068s1.374 3.068 3.068 3.068 3.068-1.373 3.068-3.068-1.374-3.068-3.068-3.068z"/><path d="m404.866 394.107c-1.694 0-3.068 1.374-3.068 3.068 0 1.22.718 2.265 1.749 2.759 1.203-1.603 2.383-3.225 3.543-4.863-.559-.59-1.346-.964-2.224-.964z"/><path d="m394.605 404.369c-1.694 0-3.068 1.373-3.068 3.068 0 1.694 1.374 3.068 3.068 3.068.178 0 .351-.023.521-.053.858-1.005 1.704-2.02 2.544-3.042-.015-1.681-1.38-3.041-3.065-3.041z"/><path d="m385.088 314.992c-1.694 0-3.068 1.373-3.068 3.068s1.374 3.068 3.068 3.068 3.068-1.374 3.068-3.068-1.374-3.068-3.068-3.068z"/><path d="m374.826 325.254c-1.694 0-3.068 1.374-3.068 3.068s1.374 3.068 3.068 3.068 3.068-1.374 3.068-3.068-1.374-3.068-3.068-3.068z"/><path d="m365.279 334.801c-1.694 0-3.068 1.374-3.068 3.068s1.374 3.068 3.068 3.068 3.068-1.374 3.068-3.068-1.374-3.068-3.068-3.068z"/><circle cx="385.088" cy="337.839" r="3.068"/><path d="m374.826 345.033c-1.694 0-3.068 1.374-3.068 3.068s1.374 3.068 3.068 3.068 3.068-1.374 3.068-3.068-1.374-3.068-3.068-3.068z"/><path d="m385.088 354.55c-1.694 0-3.068 1.374-3.068 3.068s1.374 3.068 3.068 3.068 3.068-1.373 3.068-3.068-1.374-3.068-3.068-3.068z"/><path d="m374.826 364.812c-1.694 0-3.068 1.374-3.068 3.068s1.374 3.068 3.068 3.068 3.068-1.374 3.068-3.068c0-1.695-1.374-3.068-3.068-3.068z"/><path d="m385.088 374.329c-1.694 0-3.068 1.374-3.068 3.068 0 1.695 1.374 3.068 3.068 3.068s3.068-1.373 3.068-3.068-1.374-3.068-3.068-3.068z"/><path d="m374.826 384.59c-1.694 0-3.068 1.374-3.068 3.068s1.374 3.068 3.068 3.068 3.068-1.373 3.068-3.068-1.374-3.068-3.068-3.068z"/><circle cx="385.088" cy="397.175" r="3.068"/><path d="m374.826 404.369c-1.694 0-3.068 1.373-3.068 3.068 0 1.694 1.374 3.068 3.068 3.068s3.068-1.374 3.068-3.068c0-1.695-1.374-3.068-3.068-3.068z"/><path d="m385.088 413.886c-1.694 0-3.068 1.373-3.068 3.068s1.374 3.068 3.068 3.068 3.068-1.374 3.068-3.068-1.374-3.068-3.068-3.068z"/><path d="m374.826 424.148c-1.694 0-3.068 1.373-3.068 3.068s1.374 3.068 3.068 3.068c.561 0 1.081-.162 1.533-.425.334-.305.669-.609 1.001-.916.336-.492.533-1.086.533-1.727.001-1.695-1.373-3.068-3.067-3.068z"/><path d="m355.047 351.169c1.694 0 3.068-1.374 3.068-3.068 0-1.093-.575-2.045-1.435-2.589-1.28 1.564-2.579 3.111-3.901 4.638.561.621 1.365 1.019 2.268 1.019z"/><path d="m365.309 354.55c-1.694 0-3.068 1.374-3.068 3.068s1.374 3.068 3.068 3.068 3.068-1.373 3.068-3.068-1.374-3.068-3.068-3.068z"/><path d="m355.047 364.812c-1.694 0-3.068 1.374-3.068 3.068s1.374 3.068 3.068 3.068 3.068-1.374 3.068-3.068c0-1.695-1.373-3.068-3.068-3.068z"/><path d="m365.309 374.329c-1.694 0-3.068 1.374-3.068 3.068 0 1.695 1.374 3.068 3.068 3.068s3.068-1.373 3.068-3.068-1.374-3.068-3.068-3.068z"/><path d="m355.047 384.59c-1.694 0-3.068 1.374-3.068 3.068s1.374 3.068 3.068 3.068 3.068-1.373 3.068-3.068-1.373-3.068-3.068-3.068z"/><circle cx="365.309" cy="397.175" r="3.068"/><path d="m355.047 404.369c-1.694 0-3.068 1.373-3.068 3.068 0 1.694 1.374 3.068 3.068 3.068s3.068-1.374 3.068-3.068c0-1.695-1.373-3.068-3.068-3.068z"/><path d="m365.309 413.886c-1.694 0-3.068 1.373-3.068 3.068s1.374 3.068 3.068 3.068 3.068-1.374 3.068-3.068-1.374-3.068-3.068-3.068z"/><circle cx="355.047" cy="427.216" r="3.068"/><path d="m365.309 433.665c-1.694 0-3.068 1.374-3.068 3.068 0 1.501 1.08 2.746 2.504 3.011 1.219-.966 2.427-1.944 3.625-2.935.001-.026.008-.05.008-.076-.001-1.695-1.375-3.068-3.069-3.068z"/><path d="m355.047 443.926c-1.694 0-3.068 1.374-3.068 3.068 0 .653.207 1.255.555 1.753 1.685-1.154 3.355-2.328 5.007-3.529-.557-.779-1.463-1.292-2.494-1.292z"/><path d="m345.53 360.686c1.694 0 3.068-1.373 3.068-3.068 0-.761-.287-1.448-.746-1.984-1.378 1.486-2.77 2.958-4.189 4.404.519.4 1.161.648 1.867.648z"/><path d="m345.53 374.329c-1.694 0-3.068 1.374-3.068 3.068 0 1.695 1.374 3.068 3.068 3.068s3.068-1.373 3.068-3.068-1.374-3.068-3.068-3.068z"/><path d="m335.269 384.59c-1.694 0-3.068 1.374-3.068 3.068s1.374 3.068 3.068 3.068 3.068-1.373 3.068-3.068-1.374-3.068-3.068-3.068z"/><path d="m345.53 394.107c-1.694 0-3.068 1.374-3.068 3.068s1.374 3.068 3.068 3.068 3.068-1.374 3.068-3.068-1.374-3.068-3.068-3.068z"/><path d="m335.269 404.369c-1.694 0-3.068 1.373-3.068 3.068 0 1.694 1.374 3.068 3.068 3.068s3.068-1.374 3.068-3.068c-.001-1.695-1.374-3.068-3.068-3.068z"/><path d="m345.53 413.886c-1.694 0-3.068 1.373-3.068 3.068s1.374 3.068 3.068 3.068 3.068-1.374 3.068-3.068-1.374-3.068-3.068-3.068z"/><path d="m335.269 424.148c-1.694 0-3.068 1.373-3.068 3.068s1.374 3.068 3.068 3.068 3.068-1.373 3.068-3.068-1.374-3.068-3.068-3.068z"/><path d="m345.53 433.665c-1.694 0-3.068 1.374-3.068 3.068s1.374 3.068 3.068 3.068 3.068-1.373 3.068-3.068-1.374-3.068-3.068-3.068z"/><path d="m335.269 443.926c-1.694 0-3.068 1.374-3.068 3.068s1.374 3.068 3.068 3.068 3.068-1.374 3.068-3.068c-.001-1.694-1.374-3.068-3.068-3.068z"/><path d="m342.879 454.994c.833-.508 1.667-1.015 2.492-1.534-1.071.055-1.988.656-2.492 1.534z"/><path d="m315.49 390.726c1.694 0 3.068-1.373 3.068-3.068s-1.373-3.068-3.068-3.068c-.197 0-.389.023-.575.058-.676.484-1.361.955-2.043 1.431-.28.463-.45.999-.45 1.579 0 1.695 1.373 3.068 3.068 3.068z"/><path d="m325.752 394.107c-1.694 0-3.068 1.374-3.068 3.068s1.374 3.068 3.068 3.068 3.068-1.374 3.068-3.068-1.374-3.068-3.068-3.068z"/><path d="m315.49 404.369c-1.694 0-3.068 1.373-3.068 3.068 0 1.694 1.374 3.068 3.068 3.068s3.068-1.374 3.068-3.068c0-1.695-1.374-3.068-3.068-3.068z"/><path d="m325.752 413.886c-1.694 0-3.068 1.373-3.068 3.068s1.374 3.068 3.068 3.068 3.068-1.374 3.068-3.068-1.374-3.068-3.068-3.068z"/><path d="m315.49 424.148c-1.694 0-3.068 1.373-3.068 3.068s1.374 3.068 3.068 3.068 3.068-1.373 3.068-3.068-1.374-3.068-3.068-3.068z"/><path d="m325.752 433.665c-1.694 0-3.068 1.374-3.068 3.068s1.374 3.068 3.068 3.068 3.068-1.373 3.068-3.068-1.374-3.068-3.068-3.068z"/><path d="m315.49 443.926c-1.694 0-3.068 1.374-3.068 3.068s1.374 3.068 3.068 3.068 3.068-1.374 3.068-3.068-1.374-3.068-3.068-3.068z"/><path d="m325.752 453.443c-1.694 0-3.068 1.374-3.068 3.068s1.374 3.068 3.068 3.068 3.068-1.373 3.068-3.068c-.001-1.694-1.374-3.068-3.068-3.068z"/><path d="m315.49 463.705c-1.694 0-3.068 1.373-3.068 3.068 0 1.293.802 2.394 1.933 2.845 1.334-.563 2.663-1.135 3.984-1.724.137-.348.218-.725.218-1.121.001-1.694-1.373-3.068-3.067-3.068z"/><circle cx="305.973" cy="397.175" r="3.068"/><path d="m295.711 404.369c-1.694 0-3.068 1.373-3.068 3.068 0 1.694 1.374 3.068 3.068 3.068s3.068-1.374 3.068-3.068c0-1.695-1.374-3.068-3.068-3.068z"/><path d="m305.973 413.886c-1.694 0-3.068 1.373-3.068 3.068s1.374 3.068 3.068 3.068 3.068-1.374 3.068-3.068-1.374-3.068-3.068-3.068z"/><path d="m295.711 424.148c-1.694 0-3.068 1.373-3.068 3.068s1.374 3.068 3.068 3.068 3.068-1.373 3.068-3.068-1.374-3.068-3.068-3.068z"/><path d="m305.973 433.665c-1.694 0-3.068 1.374-3.068 3.068s1.374 3.068 3.068 3.068 3.068-1.373 3.068-3.068-1.374-3.068-3.068-3.068z"/><path d="m295.711 443.926c-1.694 0-3.068 1.374-3.068 3.068s1.374 3.068 3.068 3.068 3.068-1.374 3.068-3.068-1.374-3.068-3.068-3.068z"/><path d="m305.973 453.443c-1.694 0-3.068 1.374-3.068 3.068s1.374 3.068 3.068 3.068 3.068-1.373 3.068-3.068c0-1.694-1.374-3.068-3.068-3.068z"/><path d="m295.711 463.705c-1.694 0-3.068 1.373-3.068 3.068 0 1.694 1.374 3.068 3.068 3.068s3.068-1.374 3.068-3.068-1.374-3.068-3.068-3.068z"/><path d="m286.194 413.886c-1.694 0-3.068 1.373-3.068 3.068s1.374 3.068 3.068 3.068 3.068-1.374 3.068-3.068-1.374-3.068-3.068-3.068z"/><path d="m275.932 424.148c-1.694 0-3.068 1.373-3.068 3.068s1.373 3.068 3.068 3.068c1.694 0 3.068-1.373 3.068-3.068s-1.373-3.068-3.068-3.068z"/><path d="m286.194 433.665c-1.694 0-3.068 1.374-3.068 3.068s1.374 3.068 3.068 3.068 3.068-1.373 3.068-3.068-1.374-3.068-3.068-3.068z"/><path d="m275.932 443.926c-1.694 0-3.068 1.374-3.068 3.068s1.373 3.068 3.068 3.068c1.694 0 3.068-1.374 3.068-3.068s-1.373-3.068-3.068-3.068z"/><path d="m286.194 453.443c-1.694 0-3.068 1.374-3.068 3.068s1.374 3.068 3.068 3.068 3.068-1.373 3.068-3.068c0-1.694-1.374-3.068-3.068-3.068z"/><path d="m275.932 463.705c-1.694 0-3.068 1.373-3.068 3.068 0 1.694 1.373 3.068 3.068 3.068 1.694 0 3.068-1.374 3.068-3.068s-1.373-3.068-3.068-3.068z"/><path d="m289.262 476.29c0-1.694-1.374-3.068-3.068-3.068s-3.068 1.373-3.068 3.068c0 1.588 1.211 2.879 2.757 3.037.707-.187 1.414-.375 2.119-.569.761-.559 1.26-1.452 1.26-2.468z"/><path d="m266.415 413.886c-1.694 0-3.068 1.373-3.068 3.068s1.374 3.068 3.068 3.068 3.068-1.374 3.068-3.068-1.373-3.068-3.068-3.068z"/><path d="m256.154 424.148c-1.694 0-3.068 1.373-3.068 3.068s1.374 3.068 3.068 3.068 3.068-1.373 3.068-3.068-1.374-3.068-3.068-3.068z"/><path d="m266.415 433.665c-1.694 0-3.068 1.374-3.068 3.068s1.374 3.068 3.068 3.068 3.068-1.373 3.068-3.068-1.373-3.068-3.068-3.068z"/><path d="m256.154 443.926c-1.694 0-3.068 1.374-3.068 3.068s1.374 3.068 3.068 3.068 3.068-1.374 3.068-3.068-1.374-3.068-3.068-3.068z"/><path d="m266.415 453.443c-1.694 0-3.068 1.374-3.068 3.068s1.374 3.068 3.068 3.068 3.068-1.373 3.068-3.068c0-1.694-1.373-3.068-3.068-3.068z"/><path d="m256.154 463.705c-1.694 0-3.068 1.373-3.068 3.068 0 1.694 1.374 3.068 3.068 3.068s3.068-1.374 3.068-3.068-1.374-3.068-3.068-3.068z"/><path d="m266.415 473.222c-1.694 0-3.068 1.373-3.068 3.068 0 1.694 1.374 3.068 3.068 3.068s3.068-1.374 3.068-3.068-1.373-3.068-3.068-3.068z"/><path d="m256.154 483.484c-1.23 0-2.284.729-2.773 1.774 1.73-.177 3.456-.374 5.176-.593-.562-.714-1.424-1.181-2.403-1.181z"/><ellipse cx="236.375" cy="427.216" rx="3.068" ry="3.068" transform="matrix(1 -.022 .022 1 -9.39 5.332)"/><path d="m246.637 433.665c-1.694 0-3.068 1.374-3.068 3.068s1.374 3.068 3.068 3.068 3.068-1.373 3.068-3.068-1.374-3.068-3.068-3.068z"/><path d="m236.375 443.926c-1.694 0-3.068 1.374-3.068 3.068s1.374 3.068 3.068 3.068 3.068-1.374 3.068-3.068-1.374-3.068-3.068-3.068z"/><path d="m246.637 453.443c-1.694 0-3.068 1.374-3.068 3.068s1.374 3.068 3.068 3.068 3.068-1.373 3.068-3.068c0-1.694-1.374-3.068-3.068-3.068z"/><path d="m236.375 469.841c1.694 0 3.068-1.374 3.068-3.068s-1.374-3.068-3.068-3.068-3.068 1.373-3.068 3.068c0 1.694 1.374 3.068 3.068 3.068z"/><path d="m246.637 473.222c-1.694 0-3.068 1.373-3.068 3.068 0 1.694 1.374 3.068 3.068 3.068s3.068-1.374 3.068-3.068-1.374-3.068-3.068-3.068z"/><path d="m236.375 483.484c-1.62 0-2.933 1.26-3.046 2.852 2.032-.013 4.058-.059 6.079-.13-.174-1.53-1.457-2.722-3.033-2.722z"/><path d="m216.596 430.283c1.694 0 3.068-1.373 3.068-3.068s-1.374-3.068-3.068-3.068-3.068 1.373-3.068 3.068 1.374 3.068 3.068 3.068z"/><path d="m226.858 433.665c-1.694 0-3.068 1.374-3.068 3.068s1.374 3.068 3.068 3.068 3.068-1.373 3.068-3.068-1.374-3.068-3.068-3.068z"/><path d="m216.596 450.062c1.694 0 3.068-1.374 3.068-3.068s-1.374-3.068-3.068-3.068-3.068 1.374-3.068 3.068c0 1.695 1.374 3.068 3.068 3.068z"/><path d="m226.858 459.579c1.694 0 3.068-1.373 3.068-3.068 0-1.694-1.374-3.068-3.068-3.068s-3.068 1.374-3.068 3.068c0 1.695 1.374 3.068 3.068 3.068z"/><path d="m216.596 469.841c1.694 0 3.068-1.374 3.068-3.068s-1.374-3.068-3.068-3.068-3.068 1.373-3.068 3.068c0 1.694 1.374 3.068 3.068 3.068z"/><path d="m226.858 479.358c1.694 0 3.068-1.374 3.068-3.068s-1.374-3.068-3.068-3.068-3.068 1.373-3.068 3.068c0 1.694 1.374 3.068 3.068 3.068z"/><path d="m216.596 483.484c-1.344 0-2.474.87-2.889 2.073 1.97.169 3.936.314 5.899.428-.266-1.423-1.51-2.501-3.01-2.501z"/><path d="m207.079 439.8c1.694 0 3.068-1.373 3.068-3.068s-1.374-3.068-3.068-3.068-3.068 1.374-3.068 3.068 1.374 3.068 3.068 3.068z"/><path d="m196.817 443.926c-1.694 0-3.068 1.374-3.068 3.068s1.374 3.068 3.068 3.068 3.068-1.374 3.068-3.068-1.373-3.068-3.068-3.068z"/><path d="m207.079 459.579c1.694 0 3.068-1.373 3.068-3.068 0-1.694-1.374-3.068-3.068-3.068s-3.068 1.374-3.068 3.068c0 1.695 1.374 3.068 3.068 3.068z"/><path d="m196.817 463.705c-1.694 0-3.068 1.373-3.068 3.068 0 1.694 1.374 3.068 3.068 3.068s3.068-1.374 3.068-3.068-1.373-3.068-3.068-3.068z"/><path d="m207.079 473.222c-1.694 0-3.068 1.373-3.068 3.068 0 1.694 1.374 3.068 3.068 3.068s3.068-1.374 3.068-3.068-1.373-3.068-3.068-3.068z"/><path d="m187.3 433.665c-1.694 0-3.068 1.374-3.068 3.068s1.374 3.068 3.068 3.068 3.068-1.373 3.068-3.068-1.373-3.068-3.068-3.068z"/><path d="m177.039 443.926c-1.694 0-3.068 1.374-3.068 3.068s1.374 3.068 3.068 3.068 3.068-1.374 3.068-3.068-1.374-3.068-3.068-3.068z"/><path d="m187.3 453.443c-1.694 0-3.068 1.374-3.068 3.068s1.374 3.068 3.068 3.068 3.068-1.373 3.068-3.068c.001-1.694-1.373-3.068-3.068-3.068z"/><path d="m177.039 463.705c-1.694 0-3.068 1.373-3.068 3.068 0 1.694 1.374 3.068 3.068 3.068s3.068-1.374 3.068-3.068-1.374-3.068-3.068-3.068z"/><path d="m187.3 473.222c-1.694 0-3.068 1.373-3.068 3.068 0 1.694 1.374 3.068 3.068 3.068s3.068-1.374 3.068-3.068c.001-1.694-1.373-3.068-3.068-3.068z"/><path d="m157.26 424.148c-1.694 0-3.068 1.373-3.068 3.068s1.374 3.068 3.068 3.068 3.068-1.373 3.068-3.068-1.374-3.068-3.068-3.068z"/><path d="m167.522 433.665c-1.694 0-3.068 1.374-3.068 3.068s1.374 3.068 3.068 3.068 3.068-1.373 3.068-3.068-1.374-3.068-3.068-3.068z"/><path d="m157.26 443.926c-1.694 0-3.068 1.374-3.068 3.068s1.374 3.068 3.068 3.068 3.068-1.374 3.068-3.068-1.374-3.068-3.068-3.068z"/><path d="m167.522 453.443c-1.694 0-3.068 1.374-3.068 3.068s1.374 3.068 3.068 3.068 3.068-1.373 3.068-3.068c0-1.694-1.374-3.068-3.068-3.068z"/><path d="m157.26 463.705c-1.694 0-3.068 1.373-3.068 3.068 0 1.694 1.374 3.068 3.068 3.068s3.068-1.374 3.068-3.068-1.374-3.068-3.068-3.068z"/><path d="m170.59 476.29c0-1.694-1.374-3.068-3.068-3.068-1.384 0-2.54.922-2.922 2.181 1.927.645 3.866 1.266 5.819 1.857.102-.307.171-.629.171-.97z"/><circle cx="137.481" cy="427.216" r="3.068"/><path d="m147.743 433.665c-1.694 0-3.068 1.374-3.068 3.068s1.374 3.068 3.068 3.068 3.068-1.373 3.068-3.068-1.374-3.068-3.068-3.068z"/><path d="m137.481 443.926c-1.694 0-3.068 1.374-3.068 3.068s1.374 3.068 3.068 3.068 3.068-1.374 3.068-3.068-1.373-3.068-3.068-3.068z"/><path d="m147.743 453.443c-1.694 0-3.068 1.374-3.068 3.068s1.374 3.068 3.068 3.068 3.068-1.373 3.068-3.068c0-1.694-1.374-3.068-3.068-3.068z"/><path d="m137.481 463.705c-.256 0-.5.04-.738.099 1.177.591 2.359 1.174 3.548 1.744-.472-1.084-1.551-1.843-2.81-1.843z"/><path d="m117.703 424.148c-1.694 0-3.068 1.373-3.068 3.068s1.373 3.068 3.068 3.068c1.694 0 3.068-1.373 3.068-3.068s-1.374-3.068-3.068-3.068z"/><path d="m127.964 433.665c-1.694 0-3.068 1.374-3.068 3.068s1.374 3.068 3.068 3.068 3.068-1.373 3.068-3.068-1.373-3.068-3.068-3.068z"/><path d="m117.703 443.926c-1.694 0-3.068 1.374-3.068 3.068s1.373 3.068 3.068 3.068c1.694 0 3.068-1.374 3.068-3.068s-1.374-3.068-3.068-3.068z"/><path d="m131.032 456.511c0-1.694-1.374-3.068-3.068-3.068s-3.068 1.374-3.068 3.068c0 .338.068.658.169.962 1.179.688 2.363 1.365 3.556 2.031 1.378-.3 2.411-1.524 2.411-2.993z"/><path d="m97.924 404.369c-1.694 0-3.068 1.373-3.068 3.068 0 1.694 1.374 3.068 3.068 3.068s3.068-1.374 3.068-3.068c0-1.695-1.374-3.068-3.068-3.068z"/><path d="m108.186 413.886c-1.694 0-3.068 1.373-3.068 3.068s1.374 3.068 3.068 3.068 3.068-1.374 3.068-3.068-1.374-3.068-3.068-3.068z"/><ellipse cx="97.924" cy="427.216" rx="3.068" ry="3.068" transform="matrix(1 -.014 .014 1 -5.971 1.413)"/><path d="m108.186 433.665c-1.694 0-3.068 1.374-3.068 3.068s1.374 3.068 3.068 3.068 3.068-1.373 3.068-3.068-1.374-3.068-3.068-3.068z"/><path d="m78.145 404.369c-1.694 0-3.068 1.373-3.068 3.068 0 1.694 1.374 3.068 3.068 3.068s3.068-1.374 3.068-3.068c0-1.695-1.373-3.068-3.068-3.068z"/><path d="m88.407 420.022c1.694 0 3.068-1.374 3.068-3.068s-1.374-3.068-3.068-3.068-3.068 1.373-3.068 3.068 1.374 3.068 3.068 3.068z"/><path d="m61.434 387.658c0-1.694-1.374-3.068-3.068-3.068s-3.068 1.374-3.068 3.068 1.374 3.068 3.068 3.068c1.695 0 3.068-1.373 3.068-3.068z"/><circle cx="68.628" cy="397.175" r="3.068"/><path d="m39.414 364.939c.66 1.359 1.338 2.708 2.026 4.051.135-.345.215-.717.215-1.111.001-1.406-.951-2.578-2.241-2.94z"/><path d="m51.917 377.396c0-1.694-1.374-3.068-3.068-3.068-1.595 0-2.891 1.222-3.039 2.779.585 1.032 1.179 2.06 1.781 3.082.385.173.808.275 1.257.275 1.696 0 3.069-1.373 3.069-3.068z"/><path d="m196.812 424.155c-1.694 0-3.068 1.373-3.068 3.068 0 1.694 1.374 3.068 3.068 3.068s3.068-1.374 3.068-3.068c0-1.695-1.374-3.068-3.068-3.068z"/><path d="m177.041 424.155c-1.694 0-3.068 1.373-3.068 3.068 0 1.694 1.374 3.068 3.068 3.068s3.068-1.374 3.068-3.068c-.001-1.695-1.374-3.068-3.068-3.068z"/></g><path d="m449.689 257.416c-.151-2.211-2.064-3.884-4.278-3.732l-3.181.217c.106 7.942.603 15.829 2.59 23.569.727 2.834-.854 4.924-2.953 5.791-.187 3.572-.456 7.138-.825 10.687-11.965 115.229-115.44 199.239-230.675 187.276-115.228-11.966-199.239-115.446-187.274-230.675 5.756-55.438 33.037-105.543 76.816-141.086 38.042-30.885 84.284-47.318 132.125-47.318 7.214 0 14.468.374 21.733 1.128 10.387 1.079 20.757 2.947 30.883 5.563l-.197.707c2.721.302 5.481.324 8.25.304l.769-2.758c.286-1.025.153-2.122-.37-3.05s-1.393-1.609-2.418-1.895c-11.781-3.286-23.923-5.593-36.088-6.856-57.572-5.977-114.304 11.048-159.747 47.942s-73.763 88.918-79.74 146.49c-5.979 57.571 11.047 114.303 47.941 159.747s88.918 73.763 146.489 79.741c7.548.784 15.081 1.172 22.576 1.172 49.676 0 97.685-17.057 137.171-49.114 45.444-36.894 73.763-88.918 79.741-146.49 1.286-12.378 1.508-24.948.662-37.36z" fill="#31373d"/><path d="m208.515 499.076c-60.206-6.252-114.602-35.854-153.166-83.355-38.565-47.502-56.36-106.819-50.108-167.026 6.252-60.206 35.854-114.602 83.355-153.166 47.501-38.565 106.818-56.36 167.024-50.108 12.719 1.321 25.413 3.733 37.729 7.169 7.412 2.068 11.745 9.754 9.676 17.166-2.068 7.412-9.754 11.745-17.166 9.677-10.81-3.016-21.953-5.133-33.118-6.293-109.787-11.4-208.381 68.645-219.781 178.433-11.4 109.789 68.645 208.383 178.433 219.783 109.789 11.4 208.383-68.645 219.783-178.434 1.179-11.357 1.383-22.893.607-34.287-.523-7.678 5.277-14.326 12.954-14.849 7.678-.523 14.326 5.277 14.849 12.954.885 12.98.652 26.122-.691 39.06-6.252 60.207-35.854 114.602-83.356 153.166-47.501 38.566-106.818 56.361-167.024 50.11z" fill="#e9c278"/><path d="m463.591 256.468c-.326-4.783-2.495-9.152-6.107-12.304s-8.235-4.706-13.02-4.382c-4.783.326-9.152 2.495-12.304 6.108-2.252 2.581-3.672 5.681-4.19 8.983l-190.51 12.985 51.315-183.931c8.164.378 15.83-4.891 18.118-13.091 2.66-9.533-2.932-19.451-12.464-22.112-12.534-3.497-25.451-5.951-38.393-7.295-61.278-6.365-121.636 11.745-169.969 50.984-48.333 39.24-78.456 94.594-84.818 155.868-6.362 61.273 11.744 121.636 50.984 169.969 39.24 48.334 94.594 78.456 155.868 84.818 8.041.835 16.058 1.248 24.042 1.248 52.859-.002 103.937-18.142 145.927-52.233 48.334-39.24 78.456-94.595 84.818-155.868 1.367-13.166 1.603-26.539.703-39.747zm-235.39 14.702c-.35 1.255-.069 2.602.754 3.613.822 1.01 2.082 1.561 3.385 1.47l161.738-11.024c.329 8.092.093 16.241-.718 24.284-4.538 44.989-26.259 85.369-61.161 113.702-33.466 27.167-74.972 39.663-116.867 35.185-88.952-9.508-153.799-91.788-144.557-183.416 4.538-44.989 26.259-85.369 61.161-113.702 33.467-27.167 74.976-39.663 116.867-35.184 8.139.87 16.262 2.393 24.19 4.522zm21.456-173.056c-44.039-4.703-87.643 8.41-122.781 36.935-36.574 29.69-59.334 71.998-64.089 119.13-4.658 46.183 8.613 91.698 37.371 128.161 28.784 36.496 69.384 59.24 114.32 64.044 5.87.627 11.726.938 17.562.938 37.944-.001 74.764-13.15 105.218-37.873 36.574-29.69 59.335-71.998 64.089-119.13.857-8.49 1.102-17.093.744-25.635l25.916-1.766c.468 9.856.193 19.792-.825 29.592-5.403 52.032-30.807 98.897-71.533 131.96-40.726 33.064-91.803 48.298-143.843 42.895-107.586-11.173-186.025-107.79-174.854-215.377 11.171-107.588 107.789-186.025 215.375-174.855 9.609.998 19.203 2.721 28.577 5.129l-5.754 20.624c-8.353-2.247-16.914-3.855-25.493-4.772zm205.245 197.273c-6.141 59.14-35.224 112.576-81.893 150.464-40.55 32.921-89.853 50.438-140.882 50.436-7.7 0-15.445-.399-23.199-1.204-59.14-6.141-112.576-35.224-150.464-81.893s-55.372-104.94-49.231-164.08 35.225-112.576 81.893-150.464c40.55-32.921 89.854-50.436 140.882-50.436 7.7 0 15.444.399 23.198 1.204 12.494 1.297 24.965 3.667 37.064 7.043 2.552.712 4.675 2.375 5.976 4.684 1.302 2.308 1.626 4.985.913 7.537-1.469 5.268-6.952 8.362-12.221 6.889-11.03-3.077-22.396-5.237-33.782-6.419-54.162-5.628-107.34 10.232-149.731 44.647-42.391 34.416-68.834 83.199-74.458 137.364-5.624 54.165 10.232 107.341 44.647 149.732s83.199 68.834 137.364 74.458c7.157.743 14.292 1.111 21.392 1.111 46.633-.001 91.551-15.891 128.34-45.758 42.391-34.415 68.834-83.199 74.458-137.364 1.203-11.585 1.412-23.353.619-34.974-.18-2.644.68-5.2 2.422-7.196 1.742-1.997 4.157-3.196 6.8-3.376 2.644-.179 5.199.68 7.196 2.422s3.196 4.157 3.375 6.801c.871 12.75.642 25.66-.678 38.372z" fill="#31373d"/><circle cx="193.887" cy="176.858" fill="#eaa895" r="32.372"/><circle cx="138.107" cy="330.252" fill="#eaa895" r="32.372"/><circle cx="327.36" cy="330.252" fill="#eaa895" r="32.372"/><path d="m193.887 213.244c-20.063 0-36.386-16.323-36.386-36.386s16.322-36.386 36.386-36.386 36.387 16.322 36.387 36.386-16.323 36.386-36.387 36.386zm0-64.744c-15.636 0-28.358 12.721-28.358 28.358s12.722 28.359 28.358 28.359c15.637 0 28.359-12.722 28.359-28.359s-12.722-28.358-28.359-28.358z" fill="#31373d"/><path d="m138.107 366.639c-20.063 0-36.386-16.323-36.386-36.387 0-20.063 16.323-36.386 36.386-36.386s36.386 16.323 36.386 36.386c0 20.064-16.322 36.387-36.386 36.387zm0-64.745c-15.637 0-28.358 12.722-28.358 28.358 0 15.637 12.721 28.359 28.358 28.359s28.358-12.722 28.358-28.359c0-15.636-12.721-28.358-28.358-28.358z" fill="#31373d"/><path d="m327.36 366.639c-20.064 0-36.386-16.323-36.386-36.387 0-20.063 16.322-36.386 36.386-36.386s36.386 16.323 36.386 36.386c0 20.064-16.322 36.387-36.386 36.387zm0-64.745c-15.636 0-28.358 12.722-28.358 28.358 0 15.637 12.722 28.359 28.358 28.359 15.637 0 28.359-12.722 28.359-28.359 0-15.636-12.722-28.358-28.359-28.358z" fill="#31373d"/><path d="m157.225 256.243c-12.919 9.976-31.544 7.582-41.52-5.337s-7.582-31.544 5.336-41.52c3.699-2.857 9.014-2.173 11.87 1.526s2.174 9.013-1.526 11.87c-5.532 4.272-6.557 12.248-2.285 17.78s12.248 6.557 17.78 2.285c3.699-2.857 9.014-2.173 11.87 1.526 2.857 3.698 2.174 9.013-1.525 11.87z" fill="#f9fbfc"/><path d="m216.623 421.363c-12.624-10.346-14.478-29.033-4.132-41.658 10.346-12.624 29.034-14.478 41.658-4.132 3.615 2.963 4.144 8.295 1.181 11.909-2.962 3.615-8.294 4.144-11.909 1.181-5.406-4.43-13.408-3.637-17.839 1.769-4.43 5.406-3.637 13.409 1.769 17.839 3.615 2.963 4.144 8.295 1.181 11.909-2.962 3.616-8.294 4.145-11.909 1.183z" fill="#f9fbfc"/><path d="m217.93 290.476c13.493-9.184 31.942-5.679 41.126 7.814s5.679 31.942-7.814 41.126c-3.864 2.63-9.128 1.63-11.757-2.234-2.63-3.864-1.63-9.128 2.234-11.758 5.778-3.933 7.279-11.833 3.346-17.611s-11.833-7.279-17.611-3.346c-3.864 2.63-9.128 1.629-11.757-2.234-2.631-3.863-1.631-9.128 2.233-11.757z" fill="#f9fbfc"/><g fill="#31373d"><path d="m139.171 266.416c-10.067 0-20.029-4.491-26.643-13.056-11.328-14.67-8.61-35.822 6.06-47.151 2.638-2.036 5.91-2.923 9.216-2.5 3.305.425 6.248 2.112 8.285 4.749 4.205 5.445 3.195 13.296-2.249 17.5-3.78 2.919-4.48 8.369-1.562 12.15 2.919 3.78 8.37 4.481 12.15 1.562 5.444-4.205 13.295-3.196 17.501 2.249 4.205 5.445 3.195 13.296-2.25 17.5-6.106 4.715-13.334 6.997-20.508 6.997zm-12.963-54.779c-.95 0-1.906.302-2.714.926-11.167 8.623-13.236 24.724-4.613 35.89 8.623 11.167 24.724 13.236 35.89 4.613 1.941-1.499 2.302-4.298.802-6.239-1.499-1.942-4.299-2.301-6.24-.802-7.284 5.624-17.786 4.274-23.411-3.009-5.624-7.284-4.275-17.785 3.009-23.411 1.941-1.499 2.301-4.298.802-6.24-.874-1.134-2.193-1.728-3.525-1.728z"/><path d="m221.976 427.289c-2.783 0-5.581-.924-7.897-2.821-6.935-5.683-11.243-13.739-12.13-22.683s1.755-17.689 7.438-24.624c11.748-14.336 32.971-16.44 47.307-4.692 5.321 4.361 6.102 12.238 1.741 17.559-4.36 5.32-12.237 6.102-17.558 1.741-3.695-3.027-9.163-2.486-12.19 1.209-3.027 3.694-2.485 9.163 1.209 12.19 2.577 2.112 4.178 5.102 4.507 8.418s-.653 6.562-2.765 9.14c-2.464 3.005-6.05 4.562-9.662 4.563zm13.434-54.397c-7.41 0-14.761 3.193-19.814 9.358-4.324 5.276-6.334 11.932-5.658 18.743.675 6.81 3.953 12.942 9.23 17.266 1.898 1.555 4.706 1.277 6.26-.621.753-.919 1.104-2.076.986-3.258s-.688-2.249-1.607-3.002c-7.118-5.833-8.163-16.37-2.33-23.488s16.37-8.163 23.488-2.329c1.897 1.554 4.706 1.277 6.261-.621 1.555-1.897 1.276-4.705-.621-6.261-4.748-3.892-10.49-5.787-16.195-5.787z"/><path d="m246.506 344.9c-.783 0-1.57-.074-2.355-.223-3.274-.622-6.11-2.482-7.985-5.237-3.871-5.687-2.394-13.463 3.294-17.334 3.948-2.688 4.974-8.086 2.287-12.035-2.688-3.948-8.087-4.973-12.035-2.286-2.755 1.876-6.074 2.567-9.349 1.943-3.274-.622-6.11-2.482-7.985-5.237-3.871-5.687-2.394-13.463 3.293-17.334 7.412-5.044 16.358-6.899 25.187-5.222 8.83 1.678 16.471 6.683 21.516 14.095 5.045 7.413 6.9 16.357 5.222 25.187s-6.684 16.471-14.096 21.516c-2.093 1.426-4.515 2.167-6.994 2.167zm-11.945-46.639c5.342 0 10.596 2.554 13.822 7.293 5.178 7.608 3.202 18.01-4.407 23.189-2.028 1.38-2.554 4.153-1.174 6.18.669.982 1.68 1.646 2.847 1.867 1.166.223 2.352-.024 3.333-.693 11.664-7.939 14.694-23.886 6.755-35.55-7.939-11.663-23.886-14.692-35.549-6.754-2.028 1.38-2.555 4.153-1.174 6.181 1.38 2.027 4.152 2.553 6.18 1.174 2.869-1.952 6.134-2.887 9.367-2.887z"/><path d="m188.106 172.776c0 2.317-1.878 4.195-4.195 4.195s-4.195-1.878-4.195-4.195 1.878-4.195 4.195-4.195 4.195 1.878 4.195 4.195z"/><path d="m210.608 185.743c0 3.37-2.732 6.102-6.102 6.102s-6.102-2.732-6.102-6.102 2.732-6.102 6.102-6.102 6.102 2.732 6.102 6.102z"/><path d="m329.6 322.66c0 2.317-1.878 4.195-4.195 4.195s-4.195-1.878-4.195-4.195 1.878-4.195 4.195-4.195c2.316 0 4.195 1.878 4.195 4.195z"/><path d="m318.921 339.059c0 1.685-1.366 3.051-3.051 3.051s-3.051-1.366-3.051-3.051 1.366-3.051 3.051-3.051 3.051 1.366 3.051 3.051z"/><circle cx="341.804" cy="338.297" r="5.339"/><path d="m133.766 335.208c0 3.689-2.991 6.68-6.68 6.68s-6.68-2.991-6.68-6.68 2.991-6.68 6.68-6.68 6.68 2.991 6.68 6.68z"/><path d="m151.236 318.766c0 1.986-1.61 3.597-3.597 3.597-1.986 0-3.597-1.61-3.597-3.597s1.61-3.597 3.597-3.597 3.597 1.611 3.597 3.597z"/></g><path d="m272.489 238.989 59.627-213.633c44.157 12.325 83.426 38.042 112.371 73.593 28.946 35.551 46.169 79.218 49.286 124.956z" fill="#eaa895"/><path d="m449.164 223.905c-2.443-35.843-15.94-70.063-38.624-97.923s-53.456-48.014-88.06-57.672l-49.427 170.239z" fill="#e9c278"/><path d="m492.318 237.766c-6.617-.687-11.979-6.049-12.446-12.913-2.938-43.106-18.91-83.601-46.19-117.106-27.279-33.505-63.695-57.354-105.311-68.97-7.412-2.069-11.744-9.755-9.675-17.167 2.069-7.413 9.759-11.742 17.168-9.675 47.195 13.173 88.493 40.22 119.43 78.217s49.05 83.921 52.382 132.807c.523 7.678-5.277 14.326-12.954 14.849-.816.055-1.619.04-2.404-.042z" fill="#e9c278"/><path d="m511.68 222.686c-3.389-49.719-21.811-96.424-53.274-135.068-31.464-38.644-73.466-66.152-121.465-79.55-9.531-2.659-19.452 2.931-22.112 12.462-2.29 8.201 1.539 16.677 8.722 20.582l-54.928 196.798c-.351 1.255-.07 2.603.753 3.613.765.94 1.91 1.48 3.112 1.48.091 0 .182-.003.273-.009l203.844-13.894c2.045 6.806 7.971 11.898 15.298 12.659.612.064 1.233.096 1.856.096.412 0 .824-.014 1.235-.042 4.783-.326 9.152-2.495 12.304-6.108s4.708-8.237 4.382-13.019zm-233.798 11.912 45.198-161.936c33.294 9.656 62.432 28.937 84.348 55.854 22.078 27.117 35.083 59.838 37.656 94.686zm135.772-111.15c-22.97-28.211-53.514-48.414-88.416-58.518l5.909-21.17c39.206 11.763 73.516 34.702 99.422 66.522 25.908 31.819 41.415 70.066 44.986 110.843l-22.462 1.531c-2.687-36.512-16.308-70.798-39.439-99.208zm87.595 106.979c-1.742 1.997-4.157 3.196-6.8 3.376-.577.039-1.154.029-1.715-.029h-.001c-4.803-.499-8.527-4.365-8.856-9.193-2.995-43.939-19.276-85.216-47.082-119.367-27.806-34.153-64.926-58.463-107.345-70.302-5.269-1.471-8.359-6.954-6.888-12.222 1.223-4.38 5.218-7.254 9.559-7.254.88 0 1.775.119 2.663.366 46.391 12.948 86.986 39.534 117.396 76.884s48.215 82.492 51.491 130.546c.18 2.643-.681 5.198-2.422 7.195z" fill="#31373d"/><ellipse cx="349.826" cy="132.134" fill="#eaa895" rx="32.372" ry="32.372" transform="matrix(.181 -.984 .984 .181 156.625 452.307)"/><path d="m349.826 168.52c-20.064 0-36.386-16.322-36.386-36.386 0-20.063 16.322-36.386 36.386-36.386 20.063 0 36.387 16.322 36.387 36.386-.001 20.063-16.324 36.386-36.387 36.386zm0-64.744c-15.636 0-28.358 12.722-28.358 28.358 0 15.637 12.722 28.358 28.358 28.358 15.637 0 28.358-12.722 28.358-28.358 0-15.637-12.721-28.358-28.358-28.358z" fill="#31373d"/><path d="m320.398 208.6c.824-16.301 14.757-28.893 31.058-28.068 16.301.824 28.893 14.757 28.069 31.058-.236 4.668-4.212 8.26-8.879 8.025-4.668-.236-8.26-4.211-8.025-8.879.353-6.981-5.039-12.947-12.02-13.3s-12.947 5.039-13.3 12.02c-.236 4.668-4.212 8.26-8.879 8.024-4.667-.237-8.26-4.212-8.024-8.88z" fill="#f9fbfc"/><path d="m371.088 223.639c-.215 0-.43-.005-.645-.016-6.87-.347-12.178-6.219-11.831-13.09.117-2.306-.675-4.522-2.229-6.242-1.554-1.719-3.679-2.731-5.985-2.847-4.76-.247-8.847 3.443-9.088 8.213-.168 3.329-1.623 6.392-4.096 8.627-2.473 2.234-5.676 3.372-8.995 3.204-3.328-.168-6.392-1.622-8.626-4.095-2.235-2.473-3.372-5.668-3.204-8.996.936-18.512 16.77-32.797 35.27-31.874 8.954.453 17.205 4.375 23.231 11.043s9.096 15.272 8.643 24.227c-.168 3.328-1.623 6.392-4.095 8.626-2.312 2.089-5.256 3.22-8.35 3.22zm-21.136-30.234c.283 0 .567.007.852.022 4.447.225 8.544 2.172 11.535 5.482 2.992 3.31 4.516 7.582 4.291 12.029-.124 2.449 1.768 4.544 4.218 4.667 1.186.062 2.327-.345 3.207-1.142.882-.797 1.4-1.889 1.46-3.076.713-14.09-10.171-26.134-24.262-26.846-6.811-.354-13.362 1.993-18.439 6.581-5.077 4.589-8.063 10.868-8.407 17.681-.06 1.187.345 2.326 1.142 3.208s1.889 1.4 3.076 1.46c1.19.064 2.326-.345 3.207-1.142s1.4-1.889 1.46-3.076c.451-8.906 7.841-15.848 16.66-15.848zm-29.554 15.195h.01z" fill="#31373d"/><path d="m361.733 124.288c0 3.405-2.76 6.166-6.166 6.166-3.405 0-6.166-2.76-6.166-6.166 0-3.405 2.761-6.166 6.166-6.166s6.166 2.761 6.166 6.166z" fill="#31373d"/><path d="m338.098 127.371c0 2.27-1.84 4.111-4.111 4.111-2.27 0-4.111-1.84-4.111-4.111s1.84-4.111 4.111-4.111c2.27 0 4.111 1.841 4.111 4.111z" fill="#31373d"/><path d="m356.595 146.382c0 1.419-1.15 2.569-2.569 2.569s-2.569-1.15-2.569-2.569 1.15-2.569 2.569-2.569 2.569 1.15 2.569 2.569z" fill="#31373d"/></g></svg>